SplineFontDB: 3.0
FontName: Coda
FullName: Coda
FamilyName: Coda Normal
Weight: Normal
Copyright: Copyright (c) 2011-12 vernon adams.
Version: 3.000
ItalicAngle: 0
UnderlinePosition: 0
UnderlineWidth: 0
Ascent: 1638
Descent: 410
UFOAscent: 1638
UFODescent: -410
LayerCount: 2
Layer: 0 0 "Back"  1
Layer: 1 0 "Fore"  0
FSType: 3
OS2Version: 0
OS2_WeightWidthSlopeOnly: 0
OS2_UseTypoMetrics: 0
CreationTime: 1370476472
ModificationTime: 1370476582
PfmFamily: 0
TTFWeight: 400
TTFWidth: 5
LineGap: 0
VLineGap: 0
Panose: 2 11 5 0 0 0 0 0 0 4
OS2TypoAscent: 0
OS2TypoAOffset: 1
OS2TypoDescent: 0
OS2TypoDOffset: 1
OS2TypoLinegap: 0
OS2WinAscent: 2124
OS2WinAOffset: 0
OS2WinDescent: 691
OS2WinDOffset: 0
HheadAscent: 1638
HheadAOffset: 0
HheadDescent: 410
HheadDOffset: 0
OS2SubXSize: 1331
OS2SubYSize: 1228
OS2SubXOff: 0
OS2SubYOff: 153
OS2SupXSize: 1331
OS2SupYSize: 1228
OS2SupXOff: 0
OS2SupYOff: 716
OS2StrikeYSize: 102
OS2StrikeYPos: 660
OS2Vendor: 'newt'
OS2CodePages: 20000093.00000000
OS2UnicodeRanges: 00000007.00000000.00000000.00000000
Lookup: 258 0 0 "'kern' Horizontal Kerning in Latin lookup 0"  {"'kern' Horizontal Kerning in Latin lookup 0 subtable"  "'kern' Horizontal Kerning lookup 1 kerning class 1"  } ['kern' ('DFLT' <'dflt' > 'latn' <'dflt' > ) ]
MarkAttachClasses: 1
DEI: 91125
KernClass2: 14 23 "'kern' Horizontal Kerning lookup 1 kerning class 1" 
 89 A Aacute Abreve Acircumflex Adieresis Agrave Amacron Aogonek Aring Atilde uni0200 uni0202
 1 B
 111 D Dcaron Eth O Oacute Obreve Ocircumflex Odieresis Ograve Ohungarumlaut Omacron Oslash Otilde Q uni020C uni020E
 1 F
 1 K
 1 L
 1 P
 44 R Racute Rcaron Rcommaaccent uni0210 uni0212
 16 T Tcaron uni021A
 1 V
 1 W
 18 Y Yacute Ydieresis
 44 r racute rcaron rcommaaccent uni0211 uni0213
 89 A Aacute Abreve Acircumflex Adieresis Agrave Amacron Aogonek Aring Atilde uni0200 uni0202

StartChar: A
Encoding: 65 65 1
Width: 1382
VWidth: 0
Flags: W
HStem: 0 21G<98 298.932 1073.86 1286> 381 144<449 921> 1470 20G<554.785 838.094>
LayerCount: 2
UndoRedoHistory
Layer: 1
Undoes
EndUndoes
Redoes
EndRedoes
EndUndoRedoHistory
Fore
SplineSet
585 982 m 1
 449 525 l 1
 921 525 l 1
 788 986 l 1
 687 1347 l 1
 585 982 l 1
561 1490 m 1
 832 1490 l 1
 1286 0 l 1
 1080 0 l 1
 963 381 l 1
 406 381 l 1
 293 0 l 1
 98 0 l 1
 561 1490 l 1
629 1490 m 0
1136 10 m 0
EndSplineSet
EndChar

StartChar: AE
Encoding: 198 198 2
Width: 2077
VWidth: 0
Flags: W
HStem: 0 167<1262 1936> 381 142<598 1061> 697 167<1262 1806> 1323 167<1262 1917>
VStem: 1061 201<167 381 523 697 864 1323>
LayerCount: 2
UndoRedoHistory
Layer: 1
Undoes
EndUndoes
Redoes
EndRedoes
EndUndoRedoHistory
Fore
SplineSet
984 1490 m 0,0,-1
1062 1342 m 1,1,-1
 909 1068 753 795 598 523 c 1,4,-1
 1061 523 l 1,5,-1
 1061 937 l 2,6,-1
 1061 1073 1062 1208 1062 1342 c 1,1,-1
1262 167 m 1,9,-1
 1936 167 l 1,10,-1
 1936 0 l 1,11,-1
 1061 0 l 1,12,-1
 1061 381 l 1,13,-1
 513 381 l 1,14,-1
 291 0 l 1,15,-1
 100 0 l 1,16,-1
 986 1490 l 1,17,-1
 1917 1490 l 1,18,-1
 1917 1323 l 1,19,-1
 1262 1323 l 1,20,-1
 1262 864 l 1,21,-1
 1806 864 l 1,22,-1
 1806 697 l 1,23,-1
 1262 697 l 1,24,-1
 1262 167 l 1,9,-1
EndSplineSet
EndChar

StartChar: B
Encoding: 66 66 12
Width: 1341
VWidth: 0
Flags: W
HStem: 0 151<362 968.597> 729 131<362 916.115> 1338 152<362 932.922>
VStem: 161 201<151 729 860 1338> 960 198<903.961 1306.99> 1015 196<202.837 680.104>
LayerCount: 2
UndoRedoHistory
Layer: 1
Undoes
EndUndoes
Redoes
EndRedoes
EndUndoRedoHistory
Fore
SplineSet
1015 334 m 2xf4
 1015 344 l 1
 1013 477 l 2
 1010 701 1026 729 596 729 c 2
 362 729 l 1
 362 151 l 1
 744 151 l 2
 972 151 1015 198 1015 334 c 2xf4
960 989 m 2xf8
 960 1159 l 2
 960 1328 956 1338 631 1338 c 2
 362 1338 l 1
 362 860 l 1
 563 860 l 2
 919 860 960 905 960 989 c 2xf8
1211 429 m 0xf4
 1211 25 1127 0 695 0 c 2
 161 0 l 1
 161 1490 l 1
 727 1490 l 2
 1010 1490 1155 1442 1157 1212 c 2
 1158 1104 l 1xf8
 1158 890 1126 834 946 803 c 1
 1180 779 1211 624 1211 429 c 0xf4
EndSplineSet
EndChar

StartChar: C
Encoding: 67 67 13
Width: 1357
VWidth: 0
Flags: W
HStem: -24 154<437.446 1000.2> 1360 153<417.124 1005.69>
VStem: 144 203<244.457 1275.26> 1084 174<210.734 438.142 1075.23 1266.18>
LayerCount: 2
UndoRedoHistory
Layer: 1
Undoes
EndUndoes
Redoes
EndRedoes
EndUndoRedoHistory
Fore
SplineSet
1084 462 m 1
 1258 436 l 1
 1237 65 1136 -24 772 -24 c 0
 179 -24 144 158 144 748 c 0
 144 1397 187 1513 754 1513 c 0
 1098 1513 1230 1444 1257 1078 c 1
 1082 1044 l 1
 1051 1355 1019 1360 742 1360 c 0
 490 1360 363 1347 356 1203 c 0
 348 1027 347 847 347 664 c 0
 347 536 348 411 356 289 c 0
 363 184 444 130 743 130 c 0
 1086 130 1063 208 1084 462 c 1
654 1490 m 0
654 0 m 0
EndSplineSet
EndChar

StartChar: D
Encoding: 68 68 19
Width: 1412
VWidth: 0
Flags: W
HStem: 0 153<364 953.601> 1336 154<364 944.132>
VStem: 161 203<153 1336> 1067 201<348.367 1221.62>
LayerCount: 2
UndoRedoHistory
Layer: 1
Undoes
EndUndoes
Redoes
EndRedoes
EndUndoRedoHistory
Fore
SplineSet
1067 620 m 2
 1067 873 l 2
 1067 1259 1067 1336 574 1336 c 2
 364 1336 l 1
 364 153 l 1
 604 153 l 2
 998 153 1067 168 1067 620 c 2
1268 876 m 0
 1268 53 1223 0 523 0 c 2
 161 0 l 1
 161 1490 l 1
 677 1490 l 2
 1163 1490 1268 1371 1268 876 c 0
703 1490 m 0
703 745 m 0
EndSplineSet
EndChar

StartChar: Dcroat
Encoding: 272 272 21
Width: 1492
VWidth: 0
Flags: W
HStem: 0 153<438 1027.6> 689 137<142 235 438 706> 1336 154<438 1018.13>
VStem: 235 203<153 689 826 1336> 1141 201<348.367 1221.62>
LayerCount: 2
UndoRedoHistory
Layer: 1
Undoes
EndUndoes
Redoes
EndRedoes
EndUndoRedoHistory
Fore
SplineSet
1141 620 m 2
 1141 873 l 2
 1141 1259 1141 1336 648 1336 c 2
 438 1336 l 1
 438 826 l 1
 706 826 l 1
 706 689 l 1
 438 689 l 1
 438 153 l 1
 678 153 l 2
 1072 153 1141 168 1141 620 c 2
1342 876 m 0
 1342 53 1297 0 597 0 c 2
 235 0 l 1
 235 689 l 1
 142 689 l 1
 142 826 l 1
 235 826 l 1
 235 1490 l 1
 751 1490 l 2
 1237 1490 1342 1371 1342 876 c 0
EndSplineSet
EndChar

StartChar: E
Encoding: 69 69 22
Width: 1111
VWidth: 0
Flags: W
HStem: 0 153<364 1005> 695 162<364 921> 1336 154<364 996>
VStem: 161 203<153 695 857 1336>
LayerCount: 2
UndoRedoHistory
Layer: 1
Undoes
EndUndoes
Redoes
EndRedoes
EndUndoRedoHistory
Fore
SplineSet
364 153 m 1
 1025 153 l 1
 1005 0 l 1
 161 0 l 1
 161 1490 l 1
 996 1490 l 1
 1016 1336 l 1
 364 1336 l 1
 364 857 l 1
 921 857 l 1
 921 695 l 1
 364 695 l 1
 364 153 l 1
558 1490 m 0
558 0 m 0
1004 10 m 0
EndSplineSet
EndChar

StartChar: Eth
Encoding: 208 208 32
Width: 1492
VWidth: 0
Flags: W
HStem: 0 153<438 1027.6> 689 137<142 235 438 706> 1336 154<438 1018.13>
VStem: 235 203<153 689 826 1336> 1141 201<348.367 1221.62>
LayerCount: 2
UndoRedoHistory
Layer: 1
Undoes
EndUndoes
Redoes
EndRedoes
EndUndoRedoHistory
Fore
SplineSet
1141 620 m 2
 1141 873 l 2
 1141 1259 1141 1336 648 1336 c 2
 438 1336 l 1
 438 826 l 1
 706 826 l 1
 706 689 l 1
 438 689 l 1
 438 153 l 1
 678 153 l 2
 1072 153 1141 168 1141 620 c 2
1342 876 m 0
 1342 53 1297 0 597 0 c 2
 235 0 l 1
 235 689 l 1
 142 689 l 1
 142 826 l 1
 235 826 l 1
 235 1490 l 1
 751 1490 l 2
 1237 1490 1342 1371 1342 876 c 0
EndSplineSet
EndChar

StartChar: Euro
Encoding: 8364 8364 33
Width: 1194
VWidth: 0
Flags: W
HStem: -24 154<437.446 1000.2> 549 101<140 1054> 823 104<140 1054> 1360 153<417.124 1005.69>
VStem: 144 203<244.457 1275.26> 1084 174<210.734 438.142 1075.23 1266.18>
LayerCount: 2
UndoRedoHistory
Layer: 1
Undoes
EndUndoes
Redoes
EndRedoes
EndUndoRedoHistory
Fore
SplineSet
1054 549 m 1
 140 549 l 1
 140 650 l 1
 1054 650 l 1
 1054 549 l 1
1054 928 m 1
 1054 823 l 1
 140 823 l 1
 140 927 l 1
 1054 928 l 1
EndSplineSet
Refer: 13 67 N 1 0 0 1 0 0 2
EndChar

StartChar: F
Encoding: 70 70 34
Width: 1034
VWidth: 0
Flags: W
HStem: 0 21G<161 364> 688 162<364 888> 1336 154<364 959>
VStem: 161 203<0 688 850 1336>
LayerCount: 2
UndoRedoHistory
Layer: 1
Undoes
EndUndoes
Redoes
EndRedoes
EndUndoRedoHistory
Fore
SplineSet
161 1490 m 1
 959 1490 l 1
 979 1336 l 1
 364 1336 l 1
 364 850 l 1
 888 850 l 1
 888 688 l 1
 364 688 l 1
 364 0 l 1
 161 0 l 1
 161 1490 l 1
EndSplineSet
EndChar

StartChar: G
Encoding: 71 71 35
Width: 1378
VWidth: 0
Flags: W
HStem: -24 154<403.665 1060.92> 594 151<750 1063> 1360 153<419.744 1004.76>
VStem: 144 204<201.636 1253.19> 1032 192<1096 1324.58> 1063 185<154.665 594>
LayerCount: 2
UndoRedoHistory
Layer: 1
Undoes
EndUndoes
Redoes
EndRedoes
EndUndoRedoHistory
Fore
SplineSet
750 594 m 1xf4
 733 745 l 1
 1248 745 l 1
 1248 106 l 1xf4
 1156 22 960 -24 673 -24 c 0
 174 -24 144 127 144 744 c 0
 144 1349 188 1513 718 1513 c 2
 749 1513 l 2
 989 1513 1224 1506 1224 1146 c 0
 1224 1129 1223 1112 1222 1096 c 1
 1043 1062 l 1
 1032 1259 l 1xf8
 1029 1348 939 1360 690 1360 c 0
 422 1360 365 1319 357 1192 c 0
 348 1055 348 914 348 772 c 0
 348 628 351 488 357 352 c 0
 365 167 362 130 684 130 c 0
 909 130 1038 145 1063 176 c 1
 1063 176 1063 278 1063 594 c 1
 750 594 l 1xf4
677 1490 m 0
677 0 m 0
EndSplineSet
EndChar

StartChar: H
Encoding: 72 72 40
Width: 1394
VWidth: 0
Flags: W
HStem: 0 21G<161 364 1030 1233> 684 158<364 1030> 1470 20G<161 364 1030 1233>
VStem: 161 203<0 684 842 1490> 1030 203<0 684 842 1490>
LayerCount: 2
UndoRedoHistory
Layer: 1
Undoes
EndUndoes
Redoes
EndRedoes
EndUndoRedoHistory
Fore
SplineSet
702 1490 m 0,0,-1
702 745 m 0,1,-1
1030 1490 m 1,2,-1
 1233 1490 l 1,3,-1
 1233 0 l 1,4,-1
 1030 0 l 1,5,-1
 1030 684 l 1,6,-1
 364 684 l 1,7,-1
 364 0 l 1,8,-1
 161 0 l 1,9,-1
 161 1490 l 1,10,-1
 364 1490 l 1,11,-1
 364 842 l 1,12,-1
 1030 842 l 1,13,-1
 1030 1490 l 1,2,-1
EndSplineSet
EndChar

StartChar: Hbar
Encoding: 294 294 41
Width: 1512
VWidth: 0
Flags: W
HStem: 0 21G<221 424 1090 1293> 684 158<424 1090> 1083 106<143 221 424 1090 1293 1370> 1470 20G<221 424 1090 1293>
VStem: 221 203<0 684 842 1083 1189 1490> 1090 203<0 684 842 1083 1189 1490>
LayerCount: 2
UndoRedoHistory
Layer: 1
Undoes
EndUndoes
Redoes
EndRedoes
EndUndoRedoHistory
Fore
SplineSet
1090 842 m 1
 1090 1083 l 1
 424 1083 l 1
 424 842 l 1
 1090 842 l 1
1370 1083 m 1
 1293 1083 l 1
 1293 0 l 1
 1090 0 l 1
 1090 684 l 1
 424 684 l 1
 424 0 l 1
 221 0 l 1
 221 1083 l 1
 143 1083 l 1
 143 1189 l 1
 221 1189 l 1
 221 1490 l 1
 424 1490 l 1
 424 1189 l 1
 1090 1189 l 1
 1090 1490 l 1
 1293 1490 l 1
 1293 1189 l 1
 1370 1189 l 1
 1370 1083 l 1
EndSplineSet
EndChar

StartChar: I
Encoding: 73 73 43
Width: 525
VWidth: 0
Flags: W
HStem: 0 21G<161 364> 1470 20G<161 364>
VStem: 161 203<0 1490>
LayerCount: 2
UndoRedoHistory
Layer: 1
Undoes
EndUndoes
Redoes
EndRedoes
EndUndoRedoHistory
Fore
SplineSet
274 1490 m 0,0,-1
492 10 m 0,1,-1
161 1490 m 1,2,-1
 364 1490 l 1,3,-1
 364 0 l 1,4,-1
 161 0 l 1,5,-1
 161 1490 l 1,2,-1
EndSplineSet
EndChar

StartChar: J
Encoding: 74 74 54
Width: 757
VWidth: 0
Flags: W
HStem: -24 172<107.172 372.436> 1470 20G<396 599>
VStem: 396 203<174.204 1490>
LayerCount: 2
UndoRedoHistory
Layer: 1
Undoes
EndUndoes
Redoes
EndRedoes
EndUndoRedoHistory
Fore
SplineSet
396 307 m 2
 396 1490 l 1
 599 1490 l 1
 599 432 l 2
 599 153 587 -24 348 -24 c 0
 263 -24 135 5 60 39 c 1
 81 193 l 1
 147 168 248 148 286 148 c 0
 381 148 396 219 396 307 c 2
363 1490 m 0
EndSplineSet
EndChar

StartChar: K
Encoding: 75 75 56
Width: 1219
VWidth: 0
Flags: W
HStem: 0 21G<161 363 987.538 1249> 1470 20G<161 363 926.211 1183>
VStem: 161 202<0 591 754 1490>
LayerCount: 2
UndoRedoHistory
Layer: 1
Undoes
EndUndoes
Redoes
EndRedoes
EndUndoRedoHistory
Fore
SplineSet
1183 1490 m 1
 609 780 l 1
 1249 0 l 1
 1004 0 l 1
 441 684 l 1
 363 591 l 1
 363 0 l 1
 161 0 l 1
 161 1490 l 1
 363 1490 l 1
 363 935 l 2
 363 878 362 808 362 754 c 1
 395 798 440 854 477 901 c 2
 942 1490 l 1
 1183 1490 l 1
615 1490 m 0
615 0 m 0
EndSplineSet
EndChar

StartChar: L
Encoding: 76 76 58
Width: 1033
VWidth: 0
Flags: W
HStem: 0 153<364 918> 1470 20G<161 364>
VStem: 161 203<153 1490>
LayerCount: 2
UndoRedoHistory
Layer: 1
Undoes
EndUndoes
Redoes
EndRedoes
EndUndoRedoHistory
Fore
SplineSet
364 153 m 1
 938 153 l 1
 918 0 l 1
 161 0 l 1
 161 1490 l 1
 364 1490 l 1
 364 153 l 1
500 1490 m 0
500 0 m 0
EndSplineSet
EndChar

StartChar: Lslash
Encoding: 321 321 63
Width: 1163
VWidth: 0
Flags: W
HStem: 0 171<473 1047> 1470 20G<270 473>
VStem: 270 203<171 610 907 1490>
LayerCount: 2
UndoRedoHistory
Layer: 1
Undoes
EndUndoes
Redoes
EndRedoes
EndUndoRedoHistory
Fore
SplineSet
473 171 m 1
 1047 171 l 1
 1047 0 l 1
 270 0 l 1
 270 610 l 1
 136 540 l 1
 136 733 l 1
 270 803 l 1
 270 1490 l 1
 473 1490 l 1
 473 907 l 1
 770 1060 l 1
 770 867 l 1
 473 714 l 1
 473 171 l 1
EndSplineSet
EndChar

StartChar: M
Encoding: 77 77 64
Width: 1742
VWidth: 0
Flags: W
HStem: 0 21G<149 336.738 806.718 936.894 1395.13 1594> 1479 20G<222.013 450.332 1287.8 1516.05>
VStem: 149 187<0 290.401> 1396 198<0 272.021>
LayerCount: 2
UndoRedoHistory
Layer: 1
Undoes
EndUndoes
Redoes
EndRedoes
EndUndoRedoHistory
Fore
SplineSet
380 1192 m 1
 336 0 l 1
 149 0 l 1
 223 1499 l 1
 443 1499 l 1
 873 326 l 1
 1295 1499 l 1
 1515 1499 l 1
 1594 0 l 1
 1396 0 l 1
 1344 1201 l 1
 930 0 l 1
 814 0 l 1
 380 1192 l 1
EndSplineSet
EndChar

StartChar: N
Encoding: 78 78 65
Width: 1421
VWidth: 0
Flags: W
HStem: 0 21G<161 339 1036.94 1260> 1470 20G<161 378.003 1082 1260>
VStem: 161 178<0 1177> 1082 178<297 1490>
LayerCount: 2
UndoRedoHistory
Layer: 1
Undoes
EndUndoes
Redoes
EndRedoes
EndUndoRedoHistory
Fore
SplineSet
716 1490 m 0,0,-1
716 0 m 0,1,-1
1082 1490 m 1,2,-1
 1260 1490 l 1,3,-1
 1260 0 l 1,4,-1
 1049 0 l 1,5,-1
 339 1177 l 1,6,-1
 339 0 l 1,7,-1
 161 0 l 1,8,-1
 161 1490 l 1,9,-1
 366 1490 l 1,10,-1
 1082 297 l 1,11,-1
 1082 1490 l 1,2,-1
EndSplineSet
EndChar

StartChar: O
Encoding: 79 79 70
Width: 1444
VWidth: 0
Flags: W
HStem: -24 154<435.81 1008.19> 1360 154<422.291 1016.22>
VStem: 144 204<267.917 1250.31> 1096 204<268.179 1260.06>
LayerCount: 2
UndoRedoHistory
Layer: 1
Undoes
EndUndoes
Redoes
EndRedoes
EndUndoRedoHistory
Fore
SplineSet
722 1360 m 0
 388 1360 357 1313 351 1097 c 0
 348 1006 348 914 348 821 c 0
 348 789 348 757 348 725 c 2
 348 698 l 2
 348 451 353 202 454 159 c 0
 500 140 606 130 722 130 c 0
 838 130 944 140 990 159 c 0
 1091 202 1096 451 1096 697 c 0
 1096 737 1096 776 1096 816 c 0
 1096 910 1096 1004 1093 1097 c 0
 1087 1313 1056 1360 722 1360 c 0
722 -24 m 0
 152 -24 144 139 144 812 c 0
 144 1367 223 1514 722 1514 c 0
 1195 1514 1300 1378 1300 876 c 2
 1300 813 l 2
 1300 139 1292 -24 722 -24 c 0
703 1490 m 0
EndSplineSet
EndChar

StartChar: OE
Encoding: 338 338 71
Width: 2108
VWidth: 0
Flags: W
HStem: 0 153<446.577 1103 1306 1947> 695 162<1306 1863> 1336 154<428.172 1103 1306 1938>
VStem: 151 204<267.676 1235.32> 1103 203<154 695 857 1336>
LayerCount: 2
UndoRedoHistory
Layer: 1
Undoes
EndUndoes
Redoes
EndRedoes
EndUndoRedoHistory
Fore
SplineSet
1033 1490 m 0,0,-1
1103 154 m 1,1,-1
 1103 1337 l 1,2,-1
 729 1337 l 2,3,-1
 395 1337 364 1294 358 1097 c 0,6,-1
 355 1012 355 926 355 839 c 0,9,-1
 355 801 355 763 355 725 c 2,12,-1
 355 699 l 2,13,-1
 355 463 357 218 461 183 c 1,16,-1
 504 158 613 154 729 154 c 2,19,-1
 1103 154 l 1,1,-1
1306 153 m 1,20,-1
 1967 153 l 1,21,-1
 1947 0 l 1,22,-1
 729 0 l 2,23,-1
 159 0 151 158 151 812 c 0,26,-1
 151 1348 230 1490 729 1490 c 2,29,-1
 1938 1490 l 1,30,-1
 1958 1336 l 1,31,-1
 1306 1336 l 1,32,-1
 1306 857 l 1,33,-1
 1863 857 l 1,34,-1
 1863 695 l 1,35,-1
 1306 695 l 1,36,-1
 1306 153 l 1,20,-1
EndSplineSet
EndChar

StartChar: Oslash
Encoding: 216 216 79
Width: 1456
VWidth: 0
Flags: W
HStem: -24 154<606 1010.42> 1344 146<996 1040.19> 1360 154<429.411 825>
VStem: 150 204<270.454 1250.31> 1102 204<268.179 1258.16>
LayerCount: 2
UndoRedoHistory
Layer: 1
Undoes
EndUndoes
Redoes
EndRedoes
EndUndoRedoHistory
Fore
SplineSet
719 1490 m 0,0,-1
728 1360 m 0,1,-1
 394 1360 363 1313 357 1097 c 0,4,-1
 354 1006 354 914 354 821 c 0,7,-1
 354 789 354 757 354 725 c 2,10,-1
 354 698 l 2,11,-1
 354 693 354 687 354 682 c 0,14,-1
 354 424 355 186 478 151 c 1,17,-1
 825 1358 l 1,18,-1
 796 1359 764 1360 728 1360 c 0,1,-1
482 -300 m 1,21,-1
 349 -300 l 1,22,-1
 436 1 l 1,23,-1
 155 68 150 282 150 812 c 0,26,-1
 150 1367 229 1514 728 1514 c 0,29,-1
 779 1514 825 1512 868 1509 c 1,32,-1
 940 1759 l 1,33,-1
 1073 1759 l 1,34,-1
 996 1490 l 1,35,-1
 1243 1433 1306 1264 1306 876 c 2,38,-1
 1306 813 l 2,39,-1
 1306 139 1298 -24 728 -24 c 0,42,-1
 667 -24 612 -22 563 -18 c 1,45,-1
 482 -300 l 1,21,-1
954 1344 m 1,46,-1
 606 132 l 1,47,-1
 644 130 685 130 728 130 c 0,50,-1
 844 130 950 140 996 159 c 0,53,-1
 1097 202 1102 451 1102 697 c 0,56,-1
 1102 735 1102 773 1102 810 c 0,59,-1
 1102 907 1102 1002 1099 1097 c 0,62,-1
 1095 1248 1078 1317 954 1344 c 1,46,-1
EndSplineSet
EndChar

StartChar: P
Encoding: 80 80 81
Width: 1254
VWidth: 0
Flags: W
HStem: 0 21G<161 363> 521 151<363 900.296> 1340 150<363 911.287>
VStem: 161 202<0 521 672 1340> 966 201<735.501 1276.42>
LayerCount: 2
UndoRedoHistory
Layer: 1
Undoes
EndUndoes
Redoes
EndRedoes
EndUndoRedoHistory
Fore
SplineSet
965 1015 m 0
 960 1281 939 1340 757 1340 c 2
 363 1340 l 1
 363 672 l 1
 716 672 l 2
 925 672 966 743 966 906 c 0
 966 939 965 975 965 1015 c 0
1167 1004 m 0
 1167 575 1010 521 760 521 c 2
 363 521 l 1
 363 0 l 1
 161 0 l 1
 161 1490 l 1
 701 1490 l 2
 1054 1490 1167 1414 1167 1004 c 0
EndSplineSet
EndChar

StartChar: Q
Encoding: 81 81 82
Width: 1444
VWidth: 0
Flags: W
HStem: -24 154<435.81 890.711> 1360 154<422.291 1016.22>
VStem: 144 204<267.917 1250.31> 1096 204<273.146 1260.06>
LayerCount: 2
UndoRedoHistory
Layer: 1
Undoes
EndUndoes
Redoes
EndRedoes
EndUndoRedoHistory
Fore
SplineSet
722 -24 m 0
 152 -24 144 139 144 812 c 0
 144 1367 223 1514 722 1514 c 0
 1195 1514 1300 1378 1300 876 c 2
 1300 811 l 2
 1300 320 1295 100 1071 18 c 1
 1238 -243 l 1
 1099 -358 l 1
 876 -19 l 1
 830 -23 779 -24 722 -24 c 0
722 1360 m 0
 388 1360 357 1313 351 1097 c 0
 348 1006 348 914 348 821 c 0
 348 789 348 757 348 725 c 2
 348 698 l 2
 348 451 353 202 454 159 c 0
 500 140 606 130 722 130 c 0
 838 130 944 140 990 159 c 0
 1091 202 1096 451 1096 697 c 0
 1096 737 1096 776 1096 816 c 0
 1096 910 1096 1004 1093 1097 c 0
 1087 1313 1056 1360 722 1360 c 0
EndSplineSet
EndChar

StartChar: R
Encoding: 82 82 83
Width: 1340
VWidth: 0
Flags: W
HStem: 0 21G<161 363 1006.14 1226> 641 159<363 876.651> 1337 153<363 946.26>
VStem: 161 202<0 641 800 1337> 994 200<853.141 1290.85>
LayerCount: 2
UndoRedoHistory
Layer: 1
Undoes
EndUndoes
Redoes
EndRedoes
EndUndoRedoHistory
Fore
SplineSet
994 1027 m 2
 994 1140 l 2
 994 1293 980 1337 700 1337 c 2
 363 1337 l 1
 363 800 l 1
 712 800 l 2
 965 800 994 857 994 1027 c 2
1194 1090 m 0
 1194 819 1101 740 943 714 c 1
 1071 688 1125 602 1149 465 c 1
 1226 0 l 1
 1009 0 l 1
 947 434 l 2
 934 522 897 590 849 618 c 0
 807 642 742 641 672 641 c 2
 363 641 l 1
 363 0 l 1
 161 0 l 1
 161 1490 l 1
 616 1490 l 2
 1004 1490 1194 1469 1194 1090 c 0
663 1490 m 0
663 0 m 0
EndSplineSet
EndChar

StartChar: S
Encoding: 83 83 87
Width: 1313
VWidth: 0
Flags: W
HStem: -24 164<392.859 918.058> 1129 21G<952 1046.83> 1344 169<400.588 920.898>
VStem: 149 185<196.331 380> 168 194<934.656 1300.8> 960 178<1170 1302.64> 973 201<195.259 632.581>
LayerCount: 2
UndoRedoHistory
Layer: 1
Undoes
EndUndoes
Redoes
EndRedoes
EndUndoRedoHistory
Fore
SplineSet
1174 437 m 0xea
 1174 6 1030 -24 655 -24 c 0
 187 -24 162 69 149 380 c 1
 334 410 l 1
 359 190 326 140 659 140 c 0
 941 140 973 182 973 383 c 2
 973 404 l 1xf2
 972 571 962 635 901 646 c 2
 403 733 l 2
 229 763 168 853 168 1081 c 0
 168 1442 277 1513 649 1513 c 0
 999 1513 1138 1469 1138 1170 c 1
 960 1129 l 1xec
 944 1309 966 1344 681 1344 c 0
 394 1344 362 1306 362 1199 c 2
 362 1026 l 2
 362 974 379 929 444 918 c 2
 802 857 l 2
 1056 814 1174 783 1174 437 c 0xea
627 1490 m 0
627 0 m 0
EndSplineSet
EndChar

StartChar: T
Encoding: 84 84 93
Width: 1101
VWidth: 0
Flags: W
HStem: 0 21G<445 648> 1336 154<64 445 648 1037>
VStem: 445 203<0 1336>
LayerCount: 2
UndoRedoHistory
Layer: 1
Undoes
EndUndoes
Redoes
EndRedoes
EndUndoRedoHistory
Fore
SplineSet
64 1490 m 1
 1037 1490 l 1
 1037 1336 l 1
 648 1336 l 1
 648 0 l 1
 445 0 l 1
 445 1336 l 1
 64 1336 l 1
 64 1490 l 1
450 1490 m 0
450 0 m 0
450 745 m 0
EndSplineSet
EndChar

StartChar: Thorn
Encoding: 222 222 96
Width: 1302
VWidth: 0
Flags: W
HStem: 0 21G<161 361> 383 168<361 904.551> 1120 164<361 898.788> 1469 20G<161 361>
VStem: 161 200<0 383 551 1120 1284 1489> 967 199<607.312 1051.88>
LayerCount: 2
UndoRedoHistory
Layer: 1
Undoes
EndUndoes
Redoes
EndRedoes
EndUndoRedoHistory
Fore
SplineSet
967 816 m 2
 967 832 l 2
 967 1102 925 1120 593 1120 c 2
 361 1120 l 1
 361 551 l 1
 684 551 l 2
 963 551 967 630 967 816 c 2
1166 832 m 0
 1166 439 941 381 726 381 c 0
 674 381 624 383 579 383 c 2
 361 383 l 1
 361 0 l 1
 161 0 l 1
 161 1489 l 1
 361 1489 l 1
 361 1284 l 1
 606 1284 l 2
 1030 1284 1166 1213 1166 832 c 0
EndSplineSet
EndChar

StartChar: U
Encoding: 85 85 97
Width: 1417
VWidth: 0
Flags: W
HStem: -24 154<423.142 986.323> 1470 20G<146 349 1069 1271>
VStem: 146 203<208.776 1490> 1069 202<214.426 1490>
LayerCount: 2
UndoRedoHistory
Layer: 1
Undoes
EndUndoes
Redoes
EndRedoes
EndUndoRedoHistory
Fore
SplineSet
1069 435 m 2
 1069 1490 l 1
 1271 1490 l 1
 1271 557 l 2
 1271 88 1150 -24 707 -24 c 0
 284 -24 146 69 146 557 c 2
 146 1490 l 1
 349 1490 l 1
 349 531 l 2
 349 177 350 130 708 130 c 0
 1035 130 1069 188 1069 435 c 2
703 1490 m 0
1274 10 m 0
EndSplineSet
EndChar

StartChar: V
Encoding: 86 86 108
Width: 1289
VWidth: 0
Flags: W
HStem: 0 21G<526.597 749.577> 1470 20G<56 277.028 1006.97 1233>
LayerCount: 2
UndoRedoHistory
Layer: 1
Undoes
EndUndoes
Redoes
EndRedoes
EndUndoRedoHistory
Fore
SplineSet
642 259 m 1
 1013 1490 l 1
 1233 1490 l 1
 743 0 l 1
 533 0 l 1
 56 1490 l 1
 271 1490 l 1
 642 259 l 1
EndSplineSet
EndChar

StartChar: W
Encoding: 87 87 109
Width: 1839
VWidth: 0
Flags: W
HStem: 0 21G<421.597 646.808 1203.16 1429.24> 1470 20G<98 315.865 826.293 1036.84 1549.23 1741>
VStem: 1553 188<1422.4 1490>
LayerCount: 2
UndoRedoHistory
Layer: 1
Undoes
EndUndoes
Redoes
EndRedoes
EndUndoRedoHistory
Fore
SplineSet
1325 279 m 1
 1553 1490 l 1
 1741 1490 l 1
 1425 0 l 1
 1208 0 l 1
 924 1173 l 1
 642 0 l 1
 426 0 l 1
 98 1490 l 1
 312 1490 l 1
 546 279 l 1
 831 1490 l 1
 1032 1490 l 1
 1325 279 l 1
849 1490 m 0
EndSplineSet
EndChar

StartChar: X
Encoding: 88 88 111
Width: 1244
VWidth: 0
Flags: W
HStem: 0 21G<77 308.949 934.017 1167> 1470 20G<98 326.007 917.921 1146>
LayerCount: 2
UndoRedoHistory
Layer: 1
Undoes
EndUndoes
Redoes
EndRedoes
EndUndoRedoHistory
Fore
SplineSet
1146 1490 m 1
 739 766 l 1
 1167 0 l 1
 945 0 l 1
 621 590 l 1
 298 0 l 1
 77 0 l 1
 506 766 l 1
 98 1490 l 1
 315 1490 l 1
 621 934 l 1
 929 1490 l 1
 1146 1490 l 1
EndSplineSet
EndChar

StartChar: Y
Encoding: 89 89 112
Width: 1175
VWidth: 0
Flags: W
HStem: 0 21G<480 682> 1470 20G<42 271.519 910.324 1133>
VStem: 480 202<0 518>
LayerCount: 2
UndoRedoHistory
Layer: 1
Undoes
EndUndoes
Redoes
EndRedoes
EndUndoRedoHistory
Fore
SplineSet
588 727 m 1
 919 1490 l 1
 1133 1490 l 1
 682 518 l 1
 682 0 l 1
 480 0 l 1
 480 518 l 1
 42 1490 l 1
 263 1490 l 1
 588 727 l 1
484 1490 m 0
EndSplineSet
EndChar

StartChar: Z
Encoding: 90 90 116
Width: 1146
VWidth: 0
Flags: W
HStem: 0 151<345 1030> 1338 152<196 830>
LayerCount: 2
UndoRedoHistory
Layer: 1
Undoes
EndUndoes
Redoes
EndRedoes
EndUndoRedoHistory
Fore
SplineSet
345 151 m 1
 1030 151 l 1
 1030 0 l 1
 141 0 l 1
 131 176 l 1
 364 563 595 953 830 1338 c 1
 196 1338 l 1
 179 1490 l 1
 1019 1490 l 1
 1030 1311 l 1
 802 924 576 535 345 151 c 1
544 1490 m 0
EndSplineSet
EndChar

StartChar: a
Encoding: 97 97 120
Width: 1119
VWidth: 0
Flags: W
HStem: -15 137<330.224 700.534> 0 21G<816.924 977> 485 119<365.664 780> 991 137<324.318 763.737>
VStem: 127 182<149.662 428.768> 150 155<830 968.294> 780 197<193.363 485 604 965.638> 821 156<0 70.336>
LayerCount: 2
UndoRedoHistory
Layer: 1
Undoes
EndUndoes
Redoes
EndRedoes
EndUndoRedoHistory
Fore
SplineSet
780 314 m 2xba
 780 485 l 1
 378 485 309 443 309 354 c 2
 309 341 l 2
 309 155 311 122 487 122 c 0
 713 122 780 203 780 314 c 2xba
977 726 m 2
 977 0 l 1
 821 0 l 1x71
 789 157 l 1
 746 10 643 -15 460 -15 c 0
 194 -15 127 86 127 354 c 0xb9
 127 577 387 604 780 604 c 1
 780 901 l 2
 780 970 706 991 543 991 c 0
 303 991 310 964 305 824 c 1
 152 830 l 1
 150 846 150 862 150 877 c 0xb6
 150 1104 321 1128 556 1128 c 0
 868 1128 977 1037 977 726 c 2
535 1097 m 0
979 10 m 0
EndSplineSet
EndChar

StartChar: acute
Encoding: 180 180 124
Width: 670
VWidth: 0
Flags: W
HStem: 1436 204<410.216 573.767>
VStem: 109 483
LayerCount: 2
UndoRedoHistory
Layer: 1
Undoes
EndUndoes
Redoes
EndRedoes
EndUndoRedoHistory
Fore
SplineSet
350.5 1097 m 0,0,-1
405 1605 m 0,1,-1
 428.534 1624.36 457 1640 489 1640 c 0,4,-1
 555 1640 592 1591 592 1540 c 0,7,-1
 592 1501 570 1457 521 1436 c 0,10,-1
 496 1425 126 1288 126 1287 c 2,13,-1
 109 1308 l 1,14,-1
 109 1308 366.534 1573.36 405 1605 c 0,1,-1
EndSplineSet
EndChar

StartChar: ae
Encoding: 230 230 126
Width: 1782
VWidth: 0
Flags: W
HStem: -15 137<341.224 711.035 1044.44 1423.78> 485 119<379.208 792> 550 105<989 1441> 991 137<371.851 779.506 1040.08 1414.93>
VStem: 138 182<149.662 428.768> 200 155<830 969.221> 792 197<193.363 485 655 939.673> 1441 197<655 957.73> 1458 153<157.691 306>
LayerCount: 2
UndoRedoHistory
Layer: 1
Undoes
EndUndoes
Redoes
EndRedoes
EndUndoRedoHistory
Fore
SplineSet
857 1097 m 0,0,-1
989 655 m 1,1,-1
 1441 655 l 1,2,-1
 1440 735 1437 813 1431 889 c 0,5,-1
 1425 971 1384 991 1245 991 c 0,8,-1
 972 991 995 909 989 655 c 1,1,-1
792 314 m 2,11,-1
 792 485 l 1,12,-1
 397 485 320 443 320 354 c 2,15,-1
 320 341 l 2,16,-1
 320 155 322 122 498 122 c 0,19,-1
 718 122 792 203 792 314 c 2,11,-1
1489 550 m 2,22,-1
 989 550 l 1,23,-1
 989 399 l 2,24,-1
 989 197 996 122 1258 122 c 0,27,-1
 1481 122 1444 206 1458 334 c 1,30,-1
 1611 306 l 1,31,-1
 1602 34 1537 -15 1275 -15 c 0,34,-1
 1043 -15 925 33 865 139 c 1,37,-1
 804 8 669 -15 471 -15 c 0,40,-1
 205 -15 138 86 138 354 c 0,43,-1
 138 577 404 604 792 604 c 1,46,-1
 792 901 l 2,47,-1
 792 970 738 991 581 991 c 0,50,-1
 341 991 360 964 355 824 c 1,53,-1
 202 830 l 1,54,-1
 200 846 200 862 200 877 c 0,57,-1
 200 1104 359 1128 594 1128 c 0,60,-1
 737 1128 833 1096 894 1013 c 1,63,-1
 960 1100 1068 1128 1246 1128 c 0,66,-1
 1604 1128 1638 1030 1638 564 c 1,69,-1
 1589 559 1538 550 1489 550 c 2,22,-1
EndSplineSet
EndChar

StartChar: ampersand
Encoding: 38 38 129
Width: 1480
VWidth: 0
Flags: W
HStem: -23 161<394.392 995.52> 728 125<444.02 1030 1213 1346> 1357 165<448.885 1003.19>
VStem: 146 196<186.54 666.697> 209 197<921.234 1317.76> 1030 183<183.426 727 853 962> 1043 152<1208 1318.44>
LayerCount: 2
UndoRedoHistory
Layer: 1
Undoes
EndUndoes
Redoes
EndRedoes
EndUndoRedoHistory
Fore
SplineSet
1030 236 m 2xf4
 1030 728 l 1
 493 728 l 2
 345 728 342 607 342 362 c 0
 342 186 351 138 676 138 c 0
 940 138 1030 168 1030 236 c 2xf4
1213 250 m 0
 1213 -9 929 -23 640 -23 c 0
 276 -23 146 47 146 402 c 0xf4
 146 644 222 797 360 825 c 1
 258 857 209 972 209 1183 c 0
 209 1515 426 1522 682 1522 c 0
 1016 1522 1171 1508 1188 1322 c 0
 1191 1284 1195 1246 1195 1208 c 1
 1043 1183 l 1
 1034 1347 969 1357 812 1357 c 0
 790 1357 767 1357 741 1357 c 0
 416 1357 406 1355 406 1089 c 0xea
 406 888 459 853 549 853 c 2
 1030 853 l 1
 1030 962 l 1
 1213 962 l 1
 1213 853 l 1
 1346 853 l 1
 1346 728 l 1
 1212 727 l 1
 1212 727 1213 359 1213 250 c 0
EndSplineSet
EndChar

StartChar: asciicircum
Encoding: 94 94 132
Width: 801
VWidth: 0
Flags: W
HStem: 1391 415
VStem: 121 572
LayerCount: 2
UndoRedoHistory
Layer: 1
Undoes
EndUndoes
Redoes
EndRedoes
EndUndoRedoHistory
Fore
SplineSet
407 1627 m 1
 176 1391 l 1
 121 1445 l 1
 313 1754 l 1
 339 1793 371 1806 407 1806 c 0
 443 1806 476.262 1793.81 501 1754 c 2
 693 1445 l 1
 638 1391 l 1
 407 1627 l 1
EndSplineSet
EndChar

StartChar: asciitilde
Encoding: 126 126 133
Width: 1094
VWidth: 0
Flags: W
HStem: 832 182<605.768 868.716> 966 166<214.233 463.312> 1077 20G<888.5 940.6>
LayerCount: 2
UndoRedoHistory
Layer: 1
Undoes
EndUndoes
Redoes
EndRedoes
EndUndoRedoHistory
Fore
SplineSet
927 1097 m 1xa0
 961 1047 l 1
 922 884 837 832 734 832 c 0xa0
 576 832 444 966 309 966 c 0
 261 966 213 949 163 903 c 1
 134 945 l 1
 172 1087 250 1132 343 1132 c 0x40
 542 1132 623 1014 742 1014 c 0
 793 1014 850 1035 927 1097 c 1xa0
EndSplineSet
EndChar

StartChar: asterisk
Encoding: 42 42 134
Width: 1169
VWidth: 0
Flags: W
HStem: 915 181<146.668 435.099 734.112 1024.33>
LayerCount: 2
UndoRedoHistory
Layer: 1
Undoes
EndUndoes
Redoes
EndRedoes
EndUndoRedoHistory
Fore
SplineSet
587 1022 m 1
 599 1066 637 1436 766 1436 c 0
 806 1436 846 1401 846 1353 c 0
 846 1298 810 1231 604 1012 c 1
 787 1067 856 1096 935 1096 c 0
 1001 1096 1034 1066 1034 1006 c 0
 1034 945 1000 915 931 915 c 0
 851 915 685 973 604 997 c 1
 772 812 860 701 860 664 c 0
 860 611 822 574 768 574 c 0
 678 574 628 813 587 988 c 1
 512 713 495 574 404 574 c 0
 368 574 325 612 325 648 c 0
 325 734 432 843 571 997 c 1
 444 959 313 915 238 915 c 0
 171 915 137 945 137 1006 c 0
 137 1066 170 1096 236 1096 c 0
 315 1096 496 1032 571 1012 c 1
 400 1197 315 1307 315 1344 c 0
 315 1397 348 1436 402 1436 c 0
 496 1436 544 1213 587 1022 c 1
EndSplineSet
EndChar

StartChar: at
Encoding: 64 64 135
Width: 2050
VWidth: 0
Flags: W
HStem: -344 160<688.67 1351.45> 61 139<803.734 1243.38> 87 128<1476.07 1672.96> 624 148<791.872 1271.94> 624 108<902.846 1279> 1105 161<843.323 1257.89> 1472 163<735.206 1401.81>
VStem: 147 190<221.693 1059.13> 591 181<232.915 604.773> 654 171<903 1091.2> 1279 197<237.038 624 732 1085.02> 1715 188<256.872 1133.79>
LayerCount: 2
UndoRedoHistory
Layer: 1
Undoes
EndUndoes
Redoes
EndRedoes
EndUndoRedoHistory
Fore
SplineSet
1025 200 m 0xd7b0
 1252 200 1289 254 1289 376 c 0
 1289 442 1279 543 1279 624 c 1xcfb0
 1073 624 l 2
 1014 624 966 625 928 625 c 0
 775 625 772 601 772 366 c 0
 772 238 794 200 1025 200 c 0xd7b0
654 1014 m 0x8f70
 654 1239 824 1266 1088 1266 c 0
 1347 1266 1476 1159 1476 944 c 2
 1476 215 l 1
 1565 215 1622 217 1655 241 c 0
 1713 284 1715 313 1715 670 c 0
 1715 1250 1628 1472 1059 1472 c 0
 506 1472 337 1230 337 659 c 0
 337 74 467 -184 982 -184 c 0
 1143 -184 1353 -148 1611 -77 c 1
 1659 -224 l 1
 1476 -304 1274 -344 1054 -344 c 0
 383 -344 147 -90 147 627 c 0
 147 1322 389 1635 1040 1635 c 0
 1737 1635 1903 1374 1903 662 c 0
 1903 254 1874 87 1516 87 c 0xaf70
 1415 87 1359 129 1350 212 c 1
 1327 111 1188 61 933 61 c 0
 672 61 591 140 591 410 c 0
 591 655 666 772 898 772 c 0xd7b0
 1001 772 1128 759 1279 732 c 1
 1279 959 l 2
 1279 1091 1239 1105 1140 1105 c 2
 931 1105 l 2
 871 1105 825 1086 825 992 c 0
 825 960 826 930 829 903 c 1
 666 903 l 1
 658 943 654 980 654 1014 c 0x8f70
EndSplineSet
EndChar

StartChar: b
Encoding: 98 98 137
Width: 1195
VWidth: 0
Flags: W
HStem: -15 137<457.061 828.121> 0 21G<161 343.609> 990 138<453.663 834.644>
VStem: 161 197<163.113 951.752 976 1519> 161 180<0 109.909> 867 196<161.378 954.59>
LayerCount: 2
UndoRedoHistory
Layer: 1
Undoes
EndUndoes
Redoes
EndRedoes
EndUndoRedoHistory
Fore
SplineSet
616 122 m 0xb4
 828 122 867 139 867 349 c 2
 867 761 l 2
 867 950 863 990 615 990 c 0
 397 990 358 968 358 773 c 2
 358 269 l 2
 358 158 428 122 616 122 c 0xb4
1063 611 m 0
 1063 167 1045 -15 678 -15 c 0xb4
 504 -15 396 38 359 138 c 1
 341 0 l 1
 161 0 l 1x6c
 161 1519 l 1
 358 1535 l 1
 358 976 l 1
 402 1078 493 1128 662 1128 c 0
 1029 1128 1063 932 1063 611 c 0
EndSplineSet
EndChar

StartChar: backslash
Encoding: 92 92 138
Width: 776
VWidth: 0
Flags: W
VStem: 117 542
LayerCount: 2
UndoRedoHistory
Layer: 1
Undoes
EndUndoes
Redoes
EndRedoes
EndUndoRedoHistory
Fore
SplineSet
117 1516 m 1
 316 1516 l 1
 659 -26 l 1
 460 -26 l 1
 117 1516 l 1
EndSplineSet
EndChar

StartChar: bar
Encoding: 124 124 139
Width: 497
VWidth: 0
Flags: W
VStem: 161 175<-98 1716>
LayerCount: 2
UndoRedoHistory
Layer: 1
Undoes
EndUndoes
Redoes
EndRedoes
EndUndoRedoHistory
Fore
SplineSet
336 -98 m 1
 161 -98 l 1
 161 1716 l 1
 336 1716 l 1
 336 -98 l 1
EndSplineSet
EndChar

StartChar: braceleft
Encoding: 123 123 140
Width: 851
VWidth: 0
Flags: W
HStem: -172 164<586.65 731> 664 194<134 217.338> 1530 164<578.993 730>
VStem: 134 597
CounterMasks: 1 e0
LayerCount: 2
UndoRedoHistory
Layer: 1
Undoes
EndUndoes
Redoes
EndRedoes
EndUndoRedoHistory
Fore
SplineSet
312 778 m 1
 598 663 323 -8 731 -8 c 1
 731 -172 l 1
 504 -172 371 -90 314 104 c 0
 273 246 329 664 134 664 c 1
 134 858 l 1
 257 858 269 1033 290 1196 c 0
 317 1407 359 1694 730 1694 c 1
 730 1530 l 1
 599 1530 542 1485 503 1334 c 0
 436 1073 483 852 312 778 c 1
EndSplineSet
EndChar

StartChar: braceright
Encoding: 125 125 141
Width: 850
VWidth: 0
Flags: W
HStem: -172 164<120 270.137> 664 194<629.969 717> 1530 164<121 271.99>
VStem: 120 597
CounterMasks: 1 e0
LayerCount: 2
UndoRedoHistory
Layer: 1
Undoes
EndUndoes
Redoes
EndRedoes
EndUndoRedoHistory
Fore
SplineSet
120 -172 m 1
 120 -8 l 1
 246 -8 303 33 343 171 c 0
 396 357 349 685 509 758 c 1
 413 806 390 951 379 1091 c 0
 355 1402 326 1530 121 1530 c 1
 121 1694 l 1
 432 1694 510 1517 557 1207 c 2
 576 1082 l 2
 598 934 626 858 717 858 c 1
 717 664 l 1
 618 664 590 587 574 442 c 1
 562 304 l 1
 535 54 488 -172 120 -172 c 1
EndSplineSet
EndChar

StartChar: bracketleft
Encoding: 91 91 142
Width: 723
VWidth: 0
Flags: W
HStem: -257 152<352 607> 1502 151<352 607>
VStem: 161 446<-257 -105 1502 1653> 161 191<-105 1502>
LayerCount: 2
UndoRedoHistory
Layer: 1
Undoes
EndUndoes
Redoes
EndRedoes
EndUndoRedoHistory
Fore
SplineSet
352 -105 m 1xd0
 607 -105 l 1
 607 -257 l 1
 161 -257 l 1
 161 1653 l 1
 607 1653 l 1
 607 1502 l 1xe0
 352 1502 l 1
 352 -105 l 1xd0
EndSplineSet
EndChar

StartChar: bracketright
Encoding: 93 93 143
Width: 721
VWidth: 0
Flags: W
HStem: -257 152<115 369> 1502 151<115 369>
VStem: 115 445<-257 -105 1502 1653> 369 191<-105 1502>
LayerCount: 2
UndoRedoHistory
Layer: 1
Undoes
EndUndoes
Redoes
EndRedoes
EndUndoRedoHistory
Fore
SplineSet
115 1653 m 1xe0
 560 1653 l 1
 560 -257 l 1
 115 -257 l 1
 115 -105 l 1xe0
 369 -105 l 1
 369 1502 l 1xd0
 115 1502 l 1
 115 1653 l 1xe0
EndSplineSet
EndChar

StartChar: breve
Encoding: 728 728 144
Width: 743
VWidth: 0
Flags: W
HStem: 1448 126<249.828 506.593>
VStem: 83 141<1600.34 1748> 532 142<1604.09 1748>
LayerCount: 2
UndoRedoHistory
Layer: 1
Undoes
EndUndoes
Redoes
EndRedoes
EndUndoRedoHistory
Fore
SplineSet
378.5 1097 m 0,0,-1
83 1748 m 1,1,-1
 225 1748 l 1,2,-1
 224 1745 224 1741 224 1736 c 0,5,-1
 224 1615 255 1574 378 1574 c 0,8,-1
 503 1574 532 1616 532 1748 c 1,11,-1
 674 1748 l 1,12,-1
 674 1518 575 1448 341 1448 c 0,15,-1
 195 1448 83 1526 83 1748 c 1,1,-1
EndSplineSet
EndChar

StartChar: brokenbar
Encoding: 166 166 145
Width: 509
VWidth: 0
Flags: W
VStem: 161 187<-249 563 819 1631>
LayerCount: 2
UndoRedoHistory
Layer: 1
Undoes
EndUndoes
Redoes
EndRedoes
EndUndoRedoHistory
Fore
SplineSet
348 819 m 1
 161 819 l 1
 161 1631 l 1
 348 1631 l 1
 348 819 l 1
348 -249 m 1
 161 -249 l 1
 161 563 l 1
 348 563 l 1
 348 -249 l 1
EndSplineSet
EndChar

StartChar: bullet
Encoding: 8226 8226 146
Width: 941
VWidth: 0
Flags: W
HStem: 298 732<305.194 640.712>
VStem: 129 681<477.708 842.564>
LayerCount: 2
UndoRedoHistory
Layer: 1
Undoes
EndUndoes
Redoes
EndRedoes
EndUndoRedoHistory
Fore
SplineSet
129 662 m 0
 129 851 254 1030 477 1030 c 0
 694 1030 810 858 810 664 c 0
 810 467 690 298 475 298 c 0
 256 298 129 471 129 662 c 0
EndSplineSet
EndChar

StartChar: c
Encoding: 99 99 147
Width: 1099
VWidth: 0
Flags: W
HStem: -15 138<370.83 777.976> 989 139<373.293 796.468>
VStem: 132 187<182.587 937.956> 829 164<180.484 339.448 781 844.248>
LayerCount: 2
UndoRedoHistory
Layer: 1
Undoes
EndUndoes
Redoes
EndRedoes
EndUndoRedoHistory
Fore
SplineSet
993 781 m 1
 831 754 l 1
 810 893 l 2
 799 963 801 989 585 989 c 0
 494 989 436 980 407 974 c 0
 342 959 319 822 319 680 c 2
 319 468 l 2
 319 144 352 123 567 123 c 0
 832 123 810 196 829 365 c 1
 993 337 l 1
 972 54 933 -15 576 -15 c 0
 138 -15 132 136 132 619 c 0
 132 1024 190 1128 575 1128 c 0
 880 1128 979 1063 993 781 c 1
534 1097 m 0
534 0 m 0
EndSplineSet
EndChar

StartChar: caron
Encoding: 711 711 149
Width: 801
VWidth: 0
Flags: W
HStem: 1391 415
VStem: 121 572
LayerCount: 2
UndoRedoHistory
Layer: 1
Undoes
EndUndoes
Redoes
EndRedoes
EndUndoRedoHistory
Fore
SplineSet
407 1097 m 0,0,-1
176 1806 m 1,1,-1
 407 1570 l 1,2,-1
 638 1806 l 1,3,-1
 693 1752 l 1,4,-1
 501 1443 l 1,5,-1
 475 1404 443 1391 407 1391 c 0,8,-1
 371 1391 337.738 1403.19 313 1443 c 2,11,-1
 121 1752 l 1,12,-1
 176 1806 l 1,1,-1
EndSplineSet
EndChar

StartChar: cedilla
Encoding: 184 184 154
Width: 723
VWidth: 0
Flags: W
HStem: -552 122<183.014 389.1> -20 20G<323.722 438>
VStem: 392 216<-428.534 -306.649>
LayerCount: 2
UndoRedoHistory
Layer: 1
Undoes
EndUndoes
Redoes
EndRedoes
EndUndoRedoHistory
Fore
SplineSet
366 0 m 0,0,-1
329 0 m 1,1,-1
 438 0 l 1,2,-1
 389 -168 l 1,3,-1
 521 -186 608 -214 608 -364 c 0,6,-1
 608 -490 491 -552 363 -552 c 0,9,-1
 278 -552 187 -524 124 -470 c 1,12,-1
 171 -380 l 1,13,-1
 191 -389 275 -430 333 -430 c 0,16,-1
 367 -430 392 -416 392 -376 c 0,19,-1
 392 -318 346 -289 254 -289 c 1,22,-1
 258 -271 270 -223 291 -144 c 2,25,-1
 329 0 l 1,1,-1
EndSplineSet
EndChar

StartChar: cent
Encoding: 162 162 155
Width: 1179
VWidth: 0
Flags: W
HStem: 116 146<365.144 558 631 813.836> 1166 145<363.209 558 631 826.969> 1485 20G<558 631>
VStem: 148 189<292.505 1141.53> 558 73<-72 116 262 1165 1311 1505> 842 190<282.491 510 911 1146.82>
LayerCount: 2
UndoRedoHistory
Layer: 1
Undoes
EndUndoes
Redoes
EndRedoes
EndUndoRedoHistory
Fore
SplineSet
558 262 m 1
 558 1165 l 1
 530 1165 505 1166 484 1166 c 0
 357 1166 343 1147 343 942 c 0
 343 841 340 708 340 590 c 0
 340 524 337 470 337 427 c 0
 337 297 362 262 558 262 c 1
631 -72 m 1
 558 -72 l 1
 558 116 l 1
 173 123 148 241 148 647 c 2
 148 799 l 2
 148 1191 168 1306 558 1311 c 1
 558 1505 l 1
 631 1505 l 1
 631 1310 l 1
 947 1304 1032 1223 1032 1028 c 0
 1032 978 1028 938 1028 911 c 1
 840 911 l 1
 840 963 842 1004 842 1037 c 0
 842 1149 820 1163 631 1165 c 1
 631 260 l 1
 665 258 694 256 719 256 c 0
 809 256 840 288 840 510 c 1
 1028 510 l 1
 1029 493 1030 481 1030 474 c 0
 1030 193 940 116 631 116 c 1
 631 -72 l 1
EndSplineSet
EndChar

StartChar: circumflex
Encoding: 710 710 156
Width: 801
VWidth: 0
Flags: W
HStem: 1391 415
VStem: 121 572
LayerCount: 2
UndoRedoHistory
Layer: 1
Undoes
EndUndoes
Redoes
EndRedoes
EndUndoRedoHistory
Fore
SplineSet
407 1097 m 0,0,-1
407 1627 m 1,1,-1
 176 1391 l 1,2,-1
 121 1445 l 1,3,-1
 313 1754 l 1,4,-1
 339 1793 371 1806 407 1806 c 0,7,-1
 443 1806 476.262 1793.81 501 1754 c 2,10,-1
 693 1445 l 1,11,-1
 638 1391 l 1,12,-1
 407 1627 l 1,1,-1
EndSplineSet
EndChar

StartChar: colon
Encoding: 58 58 157
Width: 572
VWidth: 0
Flags: W
HStem: 136 305<185.48 387.511> 925 307<186.386 387.614>
VStem: 147 280<174.125 400.708 963.75 1193.38>
LayerCount: 2
UndoRedoHistory
Layer: 1
Undoes
EndUndoes
Redoes
EndRedoes
EndUndoRedoHistory
Fore
SplineSet
147 1079 m 0
 147 1182 216 1232 286 1232 c 0
 356 1232 427 1180 427 1079 c 0
 427 976 358 925 288 925 c 0
 218 925 147 977 147 1079 c 0
427 288 m 0
 427 187 356 136 286 136 c 0
 216 136 147 186 147 288 c 0
 147 391 216 441 285 441 c 0
 356 441 427 389 427 288 c 0
EndSplineSet
EndChar

StartChar: comma
Encoding: 44 44 158
Width: 562
VWidth: 0
Flags: W
HStem: -227 68<118 216.666>
VStem: 290 144<-58.4902 0>
LayerCount: 2
UndoRedoHistory
Layer: 1
Undoes
EndUndoes
Redoes
EndRedoes
EndUndoRedoHistory
Fore
SplineSet
118 -227 m 1
 118 -159 l 1
 206 -159 290 -89 290 0 c 1
 205 0 146 70 146 154 c 0
 146 240 200 309 293 309 c 0
 381 309 434 225 434 130 c 0
 434 -39 318 -231 178 -231 c 0
 149 -231 129 -230 118 -227 c 1
EndSplineSet
EndChar

StartChar: copyright
Encoding: 169 169 159
Width: 1826
VWidth: 0
Flags: W
HStem: 0 92<661.724 1156.62> 226 115<683.879 1134.52> 1212 115<677.888 1141.14> 1438 94<665.367 1152.93>
VStem: 136 113<505.117 1023.31> 510 145<383.748 1181.74> 1169 128<378.106 644 909 1181.56> 1577 113<505.377 1021.91>
LayerCount: 2
UndoRedoHistory
Layer: 1
Undoes
EndUndoes
Redoes
EndRedoes
EndUndoRedoHistory
Fore
SplineSet
1171 644 m 1
 1297 644 l 1
 1297 283 1270 226 884 226 c 0
 528 226 510 332 510 865 c 0
 510 1214 556 1327 894 1327 c 0
 1235 1327 1297 1285 1297 909 c 1
 1171 909 l 1
 1169 939 1169 967 1169 992 c 2
 1169 1048 l 2
 1169 1175 1155 1212 921 1212 c 0
 666 1212 655 1187 655 1064 c 2
 655 785 l 2
 655 667 648 580 648 515 c 0
 648 370 684 341 921 341 c 0
 1206 341 1159 395 1171 644 c 1
249 760 m 0
 249 325 572 92 903 92 c 0
 1256 92 1577 323 1577 760 c 0
 1577 1211 1244 1438 912 1438 c 0
 580 1438 249 1212 249 760 c 0
136 762 m 0
 136 1272 524 1532 914 1532 c 0
 1309 1532 1690 1267 1690 761 c 0
 1690 268 1313 0 923 0 c 0
 513 0 136 263 136 762 c 0
EndSplineSet
EndChar

StartChar: currency
Encoding: 164 164 160
Width: 1178
VWidth: 0
Flags: W
HStem: 349 98<393.949 776.952> 1098 91<402.973 782.031>
VStem: 171 105<568.374 970.829> 903 107<572.988 970.63>
LayerCount: 2
UndoRedoHistory
Layer: 1
Undoes
EndUndoes
Redoes
EndRedoes
EndUndoRedoHistory
Fore
SplineSet
362 398 m 1
 212 218 l 1
 149 287 l 1
 288 457 l 1
 210 531 171 633 171 764 c 0
 171 894 210 996 288 1070 c 1
 150 1241 l 1
 213 1311 l 1
 363 1130 l 1
 422 1169 497 1189 588 1189 c 0
 678 1189 753 1170 812 1133 c 1
 964 1310 l 1
 1028 1240 l 1
 890 1071 l 1
 970 996 1010 894 1010 765 c 0
 1010 636 970 533 890 457 c 1
 1029 287 l 1
 965 218 l 1
 815 397 l 1
 754 365 679 349 590 349 c 0
 497 349 421 365 362 398 c 1
276 773 m 0
 276 552 370 447 590 447 c 0
 799 447 903 555 903 772 c 0
 903 989 813 1098 590 1098 c 0
 381 1098 276 990 276 773 c 0
EndSplineSet
EndChar

StartChar: d
Encoding: 100 100 161
Width: 1197
VWidth: 0
Flags: W
HStem: -15 137<360.926 735.09> 0 21G<850.246 1033> 990 138<372.971 752.108>
VStem: 132 197<156.647 941.617> 836 197<159.543 950.504 984 1519> 853 180<0 104.125>
LayerCount: 2
UndoRedoHistory
Layer: 1
Undoes
EndUndoes
Redoes
EndRedoes
EndUndoRedoHistory
Fore
SplineSet
836 255 m 2xb8
 836 838 l 2
 836 954 778 990 579 990 c 0
 494 990 450 986 407 973 c 0
 341 952 329 840 329 706 c 0
 329 542 329 385 335 233 c 0
 338 146 388 122 579 122 c 0
 762 122 836 150 836 255 c 2xb8
836 1519 m 1
 1033 1535 l 1
 1033 0 l 1
 853 0 l 1x74
 834 138 l 1
 794 38 689 -15 515 -15 c 0
 142 -15 132 198 132 566 c 0
 132 968 175 1128 533 1128 c 0
 706 1128 795 1083 836 984 c 1
 836 1519 l 1
579 549 m 0
EndSplineSet
EndChar

StartChar: dagger
Encoding: 8224 8224 162
Width: 1066
VWidth: 0
Flags: W
HStem: 865 219<147.084 418.395 655.578 920.198>
VStem: 428 212<25.7025 658.062 1152.16 1525.51>
LayerCount: 2
UndoRedoHistory
Layer: 1
Undoes
EndUndoes
Redoes
EndRedoes
EndUndoRedoHistory
Fore
SplineSet
534 8 m 0
 456 8 428 60 428 146 c 0
 428 349 461 546 479 743 c 2
 497 939 l 2
 496 939 320 865 246 865 c 0
 169 865 131 901 131 972 c 0
 131 1035 165 1084 221 1084 c 0
 319 1084 368 1059 442 1030 c 2
 501 1007 l 1
 456 1208 434 1338 434 1398 c 0
 434 1514 485 1552 534 1552 c 0
 597 1552 634 1512 634 1390 c 0
 634 1346 611 1218 565 1007 c 1
 696 1058 786 1084 836 1084 c 0
 904 1084 937 1041 937 959 c 0
 937 898 891 865 821 865 c 0
 780 865 696 890 570 939 c 1
 598 629 l 2
 615 444 640 283 640 146 c 0
 640 53 605 8 534 8 c 0
EndSplineSet
EndChar

StartChar: daggerdbl
Encoding: 8225 8225 163
Width: 1202
VWidth: 0
Flags: W
HStem: 381 238<163.533 436.829 767.599 1037.76> 895 239<163.959 436.03 773.987 1038.75>
VStem: 454 295<-0.0393562 318.556 1192.66 1513.54> 538 127<535 979>
LayerCount: 2
UndoRedoHistory
Layer: 1
Undoes
EndUndoes
Redoes
EndRedoes
EndUndoRedoHistory
Fore
SplineSet
1061 500 m 0xd0
 1061 439 1021 381 956 381 c 0
 819 381 709 451 665 467 c 1xd0
 679 420 l 2
 703 339 749 192 749 114 c 0
 749 19 691 -38 602 -38 c 0
 513 -38 454 19 454 112 c 0xe0
 454 193 489 265 511 374 c 1
 538 467 l 1
 406 410 317 381 271 381 c 0
 188 381 141 423 141 500 c 0
 141 579 185 619 272 619 c 0
 319 619 408 591 538 535 c 1
 538 979 l 1
 405 923 315 895 270 895 c 0
 184 895 141 934 141 1013 c 0
 141 1090 187 1134 270 1134 c 0
 315 1134 405 1105 538 1047 c 1xd0
 525 1093 454 1307 454 1400 c 0
 454 1495 512 1552 602 1552 c 0
 690 1552 749 1493 749 1402 c 0xe0
 749 1324 703 1193 665 1047 c 1
 808 1105 900 1134 943 1134 c 0
 1022 1134 1061 1089 1061 1000 c 0
 1061 933 1009 895 931 895 c 0
 882 895 794 923 665 979 c 1
 665 535 l 1
 799 591 889 619 934 619 c 0
 1015 619 1061 576 1061 500 c 0xd0
EndSplineSet
EndChar

StartChar: dcroat
Encoding: 273 273 165
Width: 1318
VWidth: 0
Flags: W
HStem: -14 128<357.366 752.098> 1005 128<360.654 768.366> 1261 103<594 851 1046 1191>
VStem: 146 195<137.662 979.561> 851 195<145.347 974.634 986 1261 1364 1542> 871 175<0 93.8356>
LayerCount: 2
UndoRedoHistory
Layer: 1
Undoes
EndUndoes
Redoes
EndRedoes
EndUndoRedoHistory
Fore
SplineSet
593 1005 m 0xf8
 400 1005 341 1000 341 879 c 2
 341 221 l 2
 341 134 384 114 592 114 c 0
 792 114 851 138 851 246 c 2
 851 866 l 2
 851 981 804 1005 593 1005 c 0xf8
146 371 m 2
 146 778 l 2
 146 1030 258 1133 543 1133 c 0
 727 1133 813 1089 851 986 c 1
 851 1261 l 1
 594 1261 l 1
 594 1364 l 1
 851 1364 l 1
 851 1542 l 1
 1046 1542 l 1
 1046 1364 l 1
 1191 1364 l 1
 1191 1261 l 1
 1046 1261 l 1xf8
 1046 0 l 1
 871 0 l 1xf4
 849 144 l 1
 816 39 707 -14 523 -14 c 0
 225 -14 146 100 146 371 c 2
EndSplineSet
EndChar

StartChar: degree
Encoding: 176 176 166
Width: 866
VWidth: 0
Flags: W
HStem: 1046 109<344.423 525.984> 1486 111<345.302 525.352>
VStem: 127 178<1196.08 1446.91> 567 175<1195.89 1445.91>
LayerCount: 2
UndoRedoHistory
Layer: 1
Undoes
EndUndoes
Redoes
EndRedoes
EndUndoRedoHistory
Fore
SplineSet
127 1322 m 0
 127 1486 273 1597 435 1597 c 0
 597 1597 742 1483 742 1321 c 0
 742 1159 600 1046 435 1046 c 0
 270 1046 127 1159 127 1322 c 0
305 1321 m 0
 305 1234 353 1155 435 1155 c 0
 517 1155 567 1234 567 1321 c 0
 567 1408 517 1486 434 1486 c 0
 355 1486 305 1409 305 1321 c 0
EndSplineSet
EndChar

StartChar: dieresis
Encoding: 168 168 167
Width: 982
VWidth: 0
Flags: W
HStem: 117 254<142.246 352.77 634.246 844.77>
VStem: 117 260<142.627 345.036> 609 260<142.627 345.036>
LayerCount: 2
UndoRedoHistory
Layer: 1
Undoes
EndUndoes
Redoes
EndRedoes
EndUndoRedoHistory
Fore
SplineSet
493 1097 m 0,0,-1
117 244 m 0,1,-1
 117 329 173 371 248 371 c 0,4,-1
 324 371 377 330 377 244 c 0,7,-1
 377 158 324 117 248 117 c 0,10,-1
 172 117 117 158 117 244 c 0,1,-1
609 244 m 0,13,-1
 609 329 665 371 740 371 c 0,16,-1
 816 371 869 330 869 244 c 0,19,-1
 869 158 816 117 740 117 c 0,22,-1
 664 117 609 158 609 244 c 0,13,-1
EndSplineSet
EndChar

StartChar: divide
Encoding: 247 247 168
Width: 571
VWidth: 0
Flags: W
HStem: 134 308<184.323 385.883> 925 308<183.96 385.883>
VStem: 147 280<172.914 402.071 961.56 1193.07>
LayerCount: 2
UndoRedoHistory
Layer: 1
Undoes
EndUndoes
Redoes
EndRedoes
EndUndoRedoHistory
Fore
SplineSet
427 288 m 0
 427 203 373 134 287 134 c 0
 206 134 147 193 147 288 c 0
 147 383 200 442 301 442 c 0
 371 442 427 366 427 288 c 0
287 925 m 0
 205 925 147 984 147 1079 c 0
 147 1175 200 1233 301 1233 c 0
 371 1233 427 1157 427 1079 c 0
 427 991 375 925 287 925 c 0
EndSplineSet
EndChar

StartChar: dollar
Encoding: 36 36 169
Width: 1322
VWidth: 0
Flags: W
HStem: -24 164<392.729 626 720 939.612> 1129 21G<952.5 1046.83> 1343 170<395.994 626 720 920.879>
VStem: 149 185<199.034 380> 168 194<934.656 1306.62> 626 94<-176 -24 141 678 887 1343 1513 1641> 960 178<1170 1304.19> 973 201<172.435 631.698>
LayerCount: 2
UndoRedoHistory
Layer: 1
Undoes
EndUndoes
Redoes
EndRedoes
EndUndoRedoHistory
Fore
SplineSet
720 -24 m 1xe5
 720 -176 l 1
 626 -176 l 1
 626 -24 l 1
 186 -20 162 76 149 380 c 1
 334 410 l 1xf5
 358 198 328 143 626 140 c 1
 626 694 l 1
 403 733 l 2
 229 763 168 853 168 1081 c 0
 168 1434 272 1510 626 1513 c 1
 626 1641 l 1
 720 1641 l 1
 720 1512 l 1
 1018 1505 1138 1448 1138 1170 c 1
 960 1129 l 1xee
 945 1300 964 1341 720 1344 c 1
 720 871 l 1
 802 857 l 1
 1055 807 1174 783 1174 437 c 0
 1174 32 1047 -19 720 -24 c 1xe5
901 646 m 2
 720 678 l 1
 720 141 l 1
 950 145 973 177 973 281 c 2
 973 365 l 2
 973 563 969 634 901 646 c 2
444 918 m 2
 626 887 l 1
 626 1343 l 1
 390 1338 362 1299 362 1199 c 2
 362 1026 l 2xec
 362 974 379 929 444 918 c 2
EndSplineSet
EndChar

StartChar: dotaccent
Encoding: 729 729 170
Width: 447
VWidth: 0
Flags: W
HStem: 1207 228<129 325>
VStem: 128 198<1207 1435>
LayerCount: 2
UndoRedoHistory
Layer: 1
Undoes
EndUndoes
Redoes
EndRedoes
EndUndoRedoHistory
Fore
SplineSet
227 1097 m 0,0,-1
128 1207 m 1,1,-1
 128 1283 129 1359 129 1435 c 1,4,-1
 325 1435 l 1,5,-1
 325 1359 326 1283 326 1207 c 1,8,-1
 128 1207 l 1,1,-1
EndSplineSet
EndChar

StartChar: dotlessi
Encoding: 305 305 171
Width: 508
VWidth: 0
Flags: W
HStem: 0 21G<156 353> 1077 20G<156 353>
VStem: 156 197<0 1097>
LayerCount: 2
UndoRedoHistory
Layer: 1
Undoes
EndUndoes
Redoes
EndRedoes
EndUndoRedoHistory
Fore
SplineSet
267 1097 m 0,0,-1
480 10 m 0,1,-1
156 1097 m 1,2,-1
 353 1097 l 1,3,-1
 353 0 l 1,4,-1
 156 0 l 1,5,-1
 156 1097 l 1,2,-1
EndSplineSet
EndChar

StartChar: e
Encoding: 101 101 172
Width: 1143
VWidth: 0
Flags: W
HStem: -15 137<363.51 801.397> 550 105<329 825> 991 137<369.712 790.927>
VStem: 132 197<159.608 550 655 947.46> 825 197<655 957.73> 842 153<166.395 306>
LayerCount: 2
UndoRedoHistory
Layer: 1
Undoes
EndUndoes
Redoes
EndRedoes
EndUndoRedoHistory
Fore
SplineSet
329 655 m 1xf8
 825 655 l 1
 824 735 821 813 815 889 c 0
 809 971 755 991 585 991 c 0
 491 991 431 984 404 975 c 0
 324 950 332 776 329 655 c 1xf8
1022 564 m 1
 973 559 922 550 873 550 c 2
 328 550 l 1
 329 442 330 336 336 232 c 0
 341 142 398 122 598 122 c 0
 870 122 824 206 842 334 c 1
 995 306 l 1xf4
 986 34 912 -15 615 -15 c 0
 147 -15 132 147 132 534 c 0
 132 1022 158 1128 586 1128 c 0
 984 1128 1022 1030 1022 564 c 1
551 1097 m 0
551 0 m 0
1001 10 m 0
EndSplineSet
EndChar

StartChar: eight
Encoding: 56 56 180
Width: 1267
VWidth: 0
Flags: W
HStem: -16 143<383.915 884.674> 711 144<425.367 843.085> 1358 148<416.034 852.059>
VStem: 144 176<191.508 638.519> 217 169<888.193 1328.75> 882 169<888.193 1329.8> 948 176<191.92 638.519>
LayerCount: 2
UndoRedoHistory
Layer: 1
Undoes
EndUndoes
Redoes
EndRedoes
EndUndoRedoHistory
Fore
SplineSet
882 1141 m 0xec
 882 1336 871 1358 635 1358 c 0
 397 1358 386 1337 386 1141 c 0
 386 1012 400 895 463 855 c 1
 805 855 l 1
 868 895 882 1012 882 1141 c 0xec
945 493 m 0
 945 708 872 711 635 711 c 0
 396 711 323 709 323 493 c 0
 323 428 320 372 320 320 c 0
 320 198 356 127 634 127 c 0
 912 127 948 198 948 320 c 0xf2
 948 372 945 428 945 493 c 0
1124 383 m 0
 1124 54 987 -16 635 -16 c 0
 282 -16 144 53 144 383 c 0xf2
 144 620 215 722 326 798 c 1
 250 854 217 962 217 1132 c 0
 217 1419 347 1506 634 1506 c 0
 921 1506 1051 1419 1051 1132 c 0xec
 1051 962 1018 854 942 798 c 1
 1053 722 1124 620 1124 383 c 0
EndSplineSet
EndChar

StartChar: ellipsis
Encoding: 8230 8230 181
Width: 1642
VWidth: 0
Flags: W
HStem: -37 308<166.75 366.372 721.874 922.241 1272.38 1472.88>
VStem: 127 281<1.974 230.625> 680 281<4.45427 231.36> 1234 280<0.223053 231.071>
LayerCount: 2
UndoRedoHistory
Layer: 1
Undoes
EndUndoes
Redoes
EndRedoes
EndUndoRedoHistory
Fore
SplineSet
268 -37 m 0
 186 -37 127 29 127 117 c 0
 127 204 178 271 268 271 c 0
 350 271 408 201 408 117 c 0
 408 29 356 -37 268 -37 c 0
680 118 m 0
 680 204 737 271 820 271 c 0
 903 271 961 210 961 117 c 0
 961 29 910 -37 822 -37 c 0
 738 -37 680 34 680 118 c 0
1374 -37 m 0
 1291 -37 1234 24 1234 117 c 0
 1234 211 1285 271 1388 271 c 0
 1458 271 1514 195 1514 117 c 0
 1514 29 1462 -37 1374 -37 c 0
EndSplineSet
EndChar

StartChar: emdash
Encoding: 8212 8212 183
Width: 1794
VWidth: 0
Flags: W
HStem: 580 188<132 1660>
LayerCount: 2
UndoRedoHistory
Layer: 1
Undoes
EndUndoes
Redoes
EndRedoes
EndUndoRedoHistory
Fore
SplineSet
132 768 m 1
 1660 768 l 1
 1660 580 l 1
 132 580 l 1
 132 768 l 1
EndSplineSet
EndChar

StartChar: endash
Encoding: 8211 8211 184
Width: 1077
VWidth: 0
Flags: W
HStem: 580 188<132 943>
LayerCount: 2
UndoRedoHistory
Layer: 1
Undoes
EndUndoes
Redoes
EndRedoes
EndUndoRedoHistory
Fore
SplineSet
132 768 m 1
 943 768 l 1
 943 580 l 1
 132 580 l 1
 132 768 l 1
EndSplineSet
EndChar

StartChar: equal
Encoding: 61 61 186
Width: 1124
VWidth: 0
Flags: W
HStem: 314 189<144 979> 692 189<144 979>
LayerCount: 2
UndoRedoHistory
Layer: 1
Undoes
EndUndoes
Redoes
EndRedoes
EndUndoRedoHistory
Fore
SplineSet
144 503 m 1
 979 503 l 1
 979 314 l 1
 144 314 l 1
 144 503 l 1
144 881 m 1
 979 881 l 1
 979 692 l 1
 144 692 l 1
 144 881 l 1
EndSplineSet
EndChar

StartChar: eth
Encoding: 240 240 187
Width: 1270
VWidth: 0
Flags: W
HStem: -24 128<349.64 909.295> 838 128<356.445 827.218> 1105 21G<645 685> 1378 119<345.832 688.175>
VStem: 142 193<126.88 812.091> 919 198<146.947 780.184>
LayerCount: 2
UndoRedoHistory
Layer: 1
Undoes
EndUndoes
Redoes
EndRedoes
EndUndoRedoHistory
Fore
SplineSet
649 838 m 0
 361 838 336 824 336 714 c 2
 335 214 l 2
 335 110 377 104 647 104 c 0
 915 104 919 120 919 204 c 2
 919 651 l 2
 919 776 904 838 649 838 c 0
851 1411 m 1
 1027 1587 l 1
 1087 1527 l 1
 929 1369 l 1
 1117 1238 1117 979 1117 452 c 0
 1117 58 1008 -24 649 -24 c 0
 240 -24 142 58 142 381 c 2
 142 391 l 1
 143 599 l 2
 144 853 247 966 554 966 c 0
 778 966 900 916 919 816 c 1
 906 1061 887 1190 822 1262 c 1
 665 1105 l 1
 605 1165 l 1
 752 1312 l 1
 666 1351 535 1359 330 1378 c 1
 348 1497 l 1
 577 1483 738 1460 851 1411 c 1
EndSplineSet
EndChar

StartChar: exclam
Encoding: 33 33 188
Width: 519
VWidth: 0
Flags: W
HStem: 0 228<163 359>
VStem: 152 216<0 228 912.378 1541.14>
LayerCount: 2
UndoRedoHistory
Layer: 1
Undoes
EndUndoes
Redoes
EndRedoes
EndUndoRedoHistory
Fore
SplineSet
260 498 m 0
 248 498 234 503 231 534 c 0
 166 1217 152 1386 152 1418 c 0
 152 1510 177 1556 260 1556 c 0
 343 1556 368 1510 368 1418 c 0
 368 1386 354 1217 289 534 c 0
 286 503 272 498 260 498 c 0
360 0 m 1
 162 0 l 1
 162 76 163 152 163 228 c 1
 359 228 l 1
 359 152 360 76 360 0 c 1
EndSplineSet
EndChar

StartChar: exclamdown
Encoding: 161 161 189
Width: 578
VWidth: 0
Flags: W
HStem: 1230 312<185.629 392.641>
VStem: 141 297<1274.25 1497> 179 217<-5.16485 672.398>
LayerCount: 2
UndoRedoHistory
Layer: 1
Undoes
EndUndoes
Redoes
EndRedoes
EndUndoRedoHistory
Fore
SplineSet
322 -33 m 1xa0
 217 -33 179 15 179 126 c 0
 179 395 255 942 261 982 c 1
 273 991 287 995 303 995 c 1
 320 964 396 533 396 250 c 0
 396 39 392 -17 322 -33 c 1xa0
438 1386 m 0xc0
 438 1296 380 1230 289 1230 c 0
 204 1230 141 1300 141 1386 c 0
 141 1471 196 1542 289 1542 c 0
 373 1542 438 1474 438 1386 c 0xc0
EndSplineSet
EndChar

StartChar: f
Encoding: 102 102 190
Width: 721
VWidth: 0
Flags: W
HStem: 0 21G<251 448> 984 113<122 251 448 646> 1362 143<484.394 652> 1365 157<452.164 649.052>
VStem: 251 197<0 984 1097 1363.36>
LayerCount: 2
UndoRedoHistory
Layer: 1
Undoes
EndUndoes
Redoes
EndRedoes
EndUndoRedoHistory
Fore
SplineSet
652 1505 m 1xe8
 652 1362 l 1xe8
 616 1364 581 1365 548 1365 c 2
 525 1365 l 2
 456 1365 447 1359 447 1235 c 0
 447 1200 448 1155 448 1097 c 1
 646 1097 l 1
 646 984 l 1
 448 984 l 1
 448 0 l 1
 251 0 l 1
 251 984 l 1
 122 984 l 1
 122 1097 l 1
 251 1097 l 1
 251 1416 260 1522 482 1522 c 0xd8
 533 1522 589 1517 652 1505 c 1xe8
EndSplineSet
EndChar

StartChar: five
Encoding: 53 53 191
Width: 1244
VWidth: 0
Flags: W
HStem: -16 149<366.128 833.636> 800 151<445.382 867.798> 1330 154<367 1012>
VStem: 157 151<289.984 354> 170 174<662 744.868> 922 177<218.141 748.722>
LayerCount: 2
UndoRedoHistory
Layer: 1
Undoes
EndUndoes
Redoes
EndRedoes
EndUndoRedoHistory
Fore
SplineSet
1099 460 m 0xec
 1099 63 976 -16 594 -16 c 0
 335 -16 155 21 155 289 c 0
 155 310 157 331 157 354 c 1
 308 375 l 1xf4
 326 167 344 133 595 133 c 0
 888 133 922 231 922 381 c 0
 922 425 919 474 919 526 c 0
 919 758 913 800 619 800 c 0
 470 800 370 794 344 649 c 1
 170 662 l 1
 170 1484 l 1
 1012 1484 l 1
 1012 1330 l 1
 367 1330 l 1
 335 761 l 1
 378 867 431 951 659 951 c 0
 1036 951 1099 808 1099 460 c 0xec
EndSplineSet
EndChar

StartChar: florin
Encoding: 402 402 192
Width: 857
VWidth: 0
Flags: W
HStem: -319 152<144.178 300.603> -299 132<140 290.683> 757 130<146 308 505 703> 1392 169<512.455 710.915>
VStem: 308 197<-166.562 757 887 1378.39>
LayerCount: 2
UndoRedoHistory
Layer: 1
Undoes
EndUndoes
Redoes
EndRedoes
EndUndoRedoHistory
Fore
SplineSet
713 1543 m 1x78
 713 1389 l 1
 687 1391 661 1392 635 1392 c 0
 504 1392 504 1372 504 1256 c 2
 505 887 l 1
 703 887 l 1
 703 757 l 1
 505 757 l 1
 505 -56 l 2
 505 -222 478 -315 292 -319 c 0xb8
 264 -319 230 -315 140 -299 c 1
 140 -167 l 1
 308 -167 l 1
 308 757 l 1
 146 757 l 1
 146 887 l 1
 308 887 l 1
 307 1259 l 2
 306 1484 375 1561 537 1561 c 0
 590 1561 650 1555 713 1543 c 1x78
EndSplineSet
EndChar

StartChar: four
Encoding: 52 52 193
Width: 1204
VWidth: 0
Flags: W
HStem: 0 21G<745 930> 389 132<316 745 930 1069> 1462 20G<630.014 930>
VStem: 745 185<0 389 521 1379>
LayerCount: 2
UndoRedoHistory
Layer: 1
Undoes
EndUndoes
Redoes
EndRedoes
EndUndoRedoHistory
Fore
SplineSet
316 521 m 1
 745 521 l 1
 745 1379 l 1
 715 1316 680 1250 648 1185 c 2
 413 713 l 2
 381 648 346 582 316 521 c 1
930 521 m 1
 1069 521 l 1
 1069 390 l 1
 930 390 l 1
 930 0 l 1
 745 0 l 1
 745 389 l 1
 123 389 l 1
 123 539 l 1
 641 1482 l 1
 930 1482 l 1
 930 521 l 1
EndSplineSet
EndChar

StartChar: fraction
Encoding: 8260 8260 194
Width: 992
VWidth: 0
Flags: W
HStem: 0 21G<105 253.711> 1470 20G<742.329 894>
LayerCount: 2
UndoRedoHistory
Layer: 1
Undoes
EndUndoes
Redoes
EndRedoes
EndUndoRedoHistory
Fore
SplineSet
105 0 m 1
 751 1490 l 1
 894 1490 l 1
 245 0 l 1
 105 0 l 1
EndSplineSet
EndChar

StartChar: g
Encoding: 103 103 195
Width: 1182
VWidth: 0
Flags: W
HStem: -406 146<289.933 782.557> 17 137<356.582 754.733> 990 135<368.741 731.074> 1077 20G<843.885 1026>
VStem: 132 195<188.156 952.472> 827 198<-211.636 151 183.199 947.41> 847 179<1004.95 1097>
LayerCount: 2
UndoRedoHistory
Layer: 1
Undoes
EndUndoes
Redoes
EndRedoes
EndUndoRedoHistory
Fore
SplineSet
575 990 m 0xe8
 355 990 327 963 327 746 c 0
 327 567 326 423 334 262 c 0
 338 172 381 154 595 154 c 0
 700 154 828 171 828 243 c 2
 829 833 l 2
 829 942 771 990 575 990 c 0xe8
828 975 m 1
 847 1097 l 1
 1026 1097 l 1xda
 1025 90 l 2
 1025 -284 961 -406 590 -406 c 0
 461 -406 357 -393 278 -365 c 1
 291 -229 l 1
 363 -249 451 -260 557 -260 c 0
 805 -260 827 -197 827 -97 c 2
 827 151 l 1xdc
 791 58 709 17 548 17 c 0
 145 17 132 185 132 535 c 0
 132 987 147 1125 503 1125 c 0
 674 1125 779 1082 828 975 c 1
571 1097 m 0
EndSplineSet
EndChar

StartChar: gcedilla
Encoding: 291 291 197
Width: 1193
VWidth: 0
Flags: W
HStem: -357 146<302.933 795.807> -3 137<369.536 767.733> 990 135<380.741 743.074> 1077 20G<855.885 1038> 1268 60<457 529.91>
VStem: 144 195<164.3 945.843> 841 197<-162.636 131 164.921 944.807> 859 179<1004.95 1097>
LayerCount: 2
UndoRedoHistory
Layer: 1
Undoes
EndUndoes
Redoes
EndRedoes
EndUndoRedoHistory
Fore
SplineSet
598 1819 m 0xcc
 703 1819 770 1734 770 1603 c 0
 770 1431 637 1268 457 1268 c 1
 457 1328 l 1
 534 1331 585 1401 585 1493 c 1
 490 1498 443 1554 443 1663 c 0
 443 1720 501 1819 598 1819 c 0xcc
587 990 m 0xee
 367 990 339 963 339 746 c 0
 339 567 339 403 347 242 c 0
 351 152 394 134 608 134 c 0
 713 134 841 151 841 223 c 2
 841 833 l 2
 841 942 783 990 587 990 c 0xee
840 975 m 1
 859 1097 l 1
 1038 1097 l 1
 1038 139 l 2xdd
 1038 -235 974 -357 603 -357 c 0
 474 -357 370 -344 291 -316 c 1
 304 -180 l 1
 376 -200 464 -211 570 -211 c 0
 818 -211 841 -148 841 -48 c 0
 841 -25 840 0 840 26 c 2
 840 131 l 1
 804 38 722 -3 561 -3 c 0
 158 -3 144 174 144 524 c 0
 144 976 159 1125 515 1125 c 0
 686 1125 791 1082 840 975 c 1
EndSplineSet
EndChar

StartChar: germandbls
Encoding: 223 223 200
Width: 1264
VWidth: 0
Flags: W
HStem: 0 160<481 875.256> 737 153<511 818.591> 1337 160<395.003 823.869>
VStem: 157 205<-169 1308.81> 849 193<910.596 1305.23> 924 198<203.912 673.874>
LayerCount: 2
UndoRedoHistory
Layer: 1
Undoes
EndUndoes
Redoes
EndRedoes
EndUndoRedoHistory
Fore
SplineSet
1122 401 m 0xf4
 1122 9 860 0 481 0 c 1
 481 162 l 1
 560 162 653 160 713 160 c 0
 901 160 924 183 924 522 c 0xf4
 924 736 875 737 521 737 c 2
 511 737 l 1
 511 890 l 1
 592 890 651 885 698 885 c 0
 839 885 849 925 849 1200 c 0
 849 1303 827 1337 589 1337 c 0
 373 1337 362 1337 362 1034 c 2
 362 916 l 2
 362 554 363 192 363 -169 c 1
 164 -185 l 1
 164 77 157 347 157 613 c 0
 157 788 159 962 170 1132 c 0
 187 1417 294 1497 605 1497 c 0
 911 1497 1042 1410 1042 1141 c 0xf8
 1042 947 990 841 890 827 c 1
 1019 818 1122 698 1122 401 c 0xf4
EndSplineSet
EndChar

StartChar: grave
Encoding: 96 96 201
Width: 679
VWidth: 0
Flags: W
HStem: 1436 204<109.233 272.784>
VStem: 91 483
LayerCount: 2
UndoRedoHistory
Layer: 1
Undoes
EndUndoes
Redoes
EndRedoes
EndUndoRedoHistory
Fore
SplineSet
332.5 1097 m 0,0,-1
278 1605 m 0,1,-1
 316.466 1573.36 574 1308 574 1308 c 1,4,-1
 557 1287 l 2,5,-1
 557 1288 187 1425 162 1436 c 0,8,-1
 113 1457 91 1501 91 1540 c 0,11,-1
 91 1591 128 1640 194 1640 c 0,14,-1
 226 1640 254.466 1624.36 278 1605 c 0,1,-1
EndSplineSet
EndChar

StartChar: greater
Encoding: 62 62 202
Width: 977
VWidth: 0
Flags: W
LayerCount: 2
UndoRedoHistory
Layer: 1
Undoes
EndUndoes
Redoes
EndRedoes
EndUndoRedoHistory
Fore
SplineSet
152 1281 m 1
 850 832 l 1
 850 667 l 1
 152 234 l 1
 152 461 l 1
 672 757 l 1
 152 1045 l 1
 152 1281 l 1
EndSplineSet
EndChar

StartChar: guillemotleft
Encoding: 171 171 203
Width: 1231
VWidth: 0
Flags: W
LayerCount: 2
UndoRedoHistory
Layer: 1
Undoes
EndUndoes
Redoes
EndRedoes
EndUndoRedoHistory
Fore
SplineSet
598 253 m 1
 123 677 l 1
 123 775 l 1
 598 1199 l 1
 693 1086 l 1
 272 726 l 1
 693 366 l 1
 598 253 l 1
997 253 m 1
 523 677 l 1
 523 775 l 1
 997 1199 l 1
 1092 1086 l 1
 671 726 l 1
 1092 366 l 1
 997 253 l 1
EndSplineSet
EndChar

StartChar: guillemotright
Encoding: 187 187 204
Width: 1232
VWidth: 0
Flags: W
LayerCount: 2
UndoRedoHistory
Layer: 1
Undoes
EndUndoes
Redoes
EndRedoes
EndUndoRedoHistory
Fore
SplineSet
540 1086 m 1
 634 1199 l 1
 1109 775 l 1
 1109 677 l 1
 634 253 l 1
 540 366 l 1
 960 726 l 1
 540 1086 l 1
140 1086 m 1
 236 1199 l 1
 710 775 l 1
 710 677 l 1
 236 253 l 1
 140 366 l 1
 562 726 l 1
 140 1086 l 1
EndSplineSet
EndChar

StartChar: guilsinglleft
Encoding: 8249 8249 205
Width: 831
VWidth: 0
Flags: W
VStem: 122 570
LayerCount: 2
UndoRedoHistory
Layer: 1
Undoes
EndUndoes
Redoes
EndRedoes
EndUndoRedoHistory
Fore
SplineSet
597 220 m 1
 122 644 l 1
 122 742 l 1
 597 1166 l 1
 692 1053 l 1
 271 693 l 1
 692 333 l 1
 597 220 l 1
EndSplineSet
EndChar

StartChar: guilsinglright
Encoding: 8250 8250 206
Width: 834
VWidth: 0
Flags: W
VStem: 141 570
LayerCount: 2
UndoRedoHistory
Layer: 1
Undoes
EndUndoes
Redoes
EndRedoes
EndUndoRedoHistory
Fore
SplineSet
141 1053 m 1
 236 1166 l 1
 711 742 l 1
 711 644 l 1
 236 220 l 1
 141 333 l 1
 562 693 l 1
 141 1053 l 1
EndSplineSet
EndChar

StartChar: h
Encoding: 104 104 207
Width: 1185
VWidth: 0
Flags: W
HStem: 0 21G<161 359 839 1036> 990 138<435.068 811.925> 1482 20G<161 359>
VStem: 161 198<0 948.078 1014 1486> 839 197<0 953.852>
LayerCount: 2
UndoRedoHistory
Layer: 1
Undoes
EndUndoes
Redoes
EndRedoes
EndUndoRedoHistory
Fore
SplineSet
1036 629 m 2
 1036 0 l 1
 839 0 l 1
 839 666 l 2
 839 733 842 787 842 830 c 0
 842 952 814 990 590 990 c 0
 490 990 379 969 373 896 c 0
 365 793 359 684 359 572 c 2
 359 0 l 1
 161 0 l 1
 161 1486 l 1
 359 1502 l 1
 359 1014 l 1
 407 1090 508 1128 657 1128 c 0
 1011 1128 1037 990 1037 756 c 0
 1037 717 1036 674 1036 629 c 2
591 1097 m 0
591 549 m 0
EndSplineSet
EndChar

StartChar: hbar
Encoding: 295 295 208
Width: 1305
VWidth: 0
Flags: W
HStem: 0 21G<278 476 957 1154> 990 138<552.068 922.502> 1245 127<129 278 476 726> 1482 20G<278 476>
VStem: 278 198<0 948.078 1014 1245 1372 1486> 957 197<0 953.852>
LayerCount: 2
UndoRedoHistory
Layer: 1
Undoes
EndUndoes
Redoes
EndRedoes
EndUndoRedoHistory
Fore
SplineSet
1154 756 m 2
 1154 0 l 1
 957 0 l 1
 957 666 l 2
 957 733 958 787 958 830 c 0
 958 952 930 990 707 990 c 0
 607 990 496 969 490 896 c 0
 482 793 476 684 476 572 c 2
 476 0 l 1
 278 0 l 1
 278 1245 l 1
 129 1245 l 1
 129 1372 l 1
 278 1372 l 1
 278 1486 l 1
 476 1502 l 1
 476 1372 l 1
 726 1372 l 1
 726 1245 l 1
 476 1245 l 1
 476 1014 l 1
 524 1090 625 1128 774 1128 c 0
 1128 1128 1154 990 1154 756 c 2
EndSplineSet
EndChar

StartChar: hungarumlaut
Encoding: 733 733 210
Width: 1126
VWidth: 0
Flags: W
HStem: 1436 204<392.216 555.767 821.216 984.767>
LayerCount: 2
UndoRedoHistory
Layer: 1
Undoes
EndUndoes
Redoes
EndRedoes
EndUndoRedoHistory
Fore
SplineSet
547 1097 m 0,0,-1
816 1605 m 0,1,-1
 839.534 1624.36 868 1640 900 1640 c 0,4,-1
 966 1640 1003 1591 1003 1540 c 0,7,-1
 1003 1501 981 1457 932 1436 c 0,10,-1
 907 1425 537 1288 537 1287 c 2,13,-1
 520 1308 l 1,14,-1
 520 1308 777.534 1573.36 816 1605 c 0,1,-1
387 1605 m 0,17,-1
 410.534 1624.36 439 1640 471 1640 c 0,20,-1
 537 1640 574 1591 574 1540 c 0,23,-1
 574 1501 552 1457 503 1436 c 0,26,-1
 478 1425 108 1288 108 1287 c 2,29,-1
 91 1308 l 1,30,-1
 91 1308 348.534 1573.36 387 1605 c 0,17,-1
EndSplineSet
EndChar

StartChar: hyphen
Encoding: 45 45 211
Width: 851
VWidth: 0
Flags: W
HStem: 538 139<131 718>
VStem: 131 587<538 677>
LayerCount: 2
UndoRedoHistory
Layer: 1
Undoes
EndUndoes
Redoes
EndRedoes
EndUndoRedoHistory
Fore
SplineSet
718 677 m 1
 718 538 l 1
 131 538 l 1
 131 677 l 1
 718 677 l 1
EndSplineSet
EndChar

StartChar: i
Encoding: 105 105 212
Width: 547
VWidth: 0
Flags: W
HStem: 0 21G<181 378> 1077 20G<181 378> 1348 173<181 378>
VStem: 181 197<0 1097 1348 1521>
LayerCount: 2
UndoRedoHistory
Layer: 1
Undoes
EndUndoes
Redoes
EndRedoes
EndUndoRedoHistory
Fore
SplineSet
181 1348 m 1
 181 1521 l 1
 378 1521 l 1
 378 1348 l 1
 181 1348 l 1
181 1097 m 1
 378 1097 l 1
 378 0 l 1
 181 0 l 1
 181 1097 l 1
EndSplineSet
EndChar

StartChar: j
Encoding: 106 106 222
Width: 576
VWidth: 0
Flags: W
HStem: -302 130<57 206.865> 1077 20G<221 418> 1348 173<220 419>
VStem: 221 197<-154.107 1097 1348 1521>
LayerCount: 2
UndoRedoHistory
Layer: 1
Undoes
EndUndoes
Redoes
EndRedoes
EndUndoRedoHistory
Fore
SplineSet
220 1348 m 1
 220 1521 l 1
 419 1521 l 1
 419 1348 l 1
 220 1348 l 1
221 -64 m 2
 221 1097 l 1
 418 1097 l 1
 418 61 l 2
 418 -200 361 -302 163 -302 c 0
 132 -302 96 -299 57 -294 c 1
 52 -172 l 1
 133 -168 221 -188 221 -64 c 2
EndSplineSet
EndChar

StartChar: k
Encoding: 107 107 224
Width: 1087
VWidth: 0
Flags: W
HStem: 0 21G<161 359 819.643 1050> 1077 20G<771.684 1014> 1482 20G<161 359>
VStem: 161 198<0 469 625 1486>
LayerCount: 2
UndoRedoHistory
Layer: 1
Undoes
EndUndoes
Redoes
EndRedoes
EndUndoRedoHistory
Fore
SplineSet
1014 1097 m 1
 601 658 l 1
 1050 0 l 1
 833 0 l 1
 451 572 l 1
 359 469 l 1
 359 0 l 1
 161 0 l 1
 161 1486 l 1
 359 1502 l 1
 359 782 l 2
 359 732 358 674 358 625 c 1
 414 685 472 750 529 812 c 2
 790 1097 l 1
 1014 1097 l 1
538 0 m 0
EndSplineSet
EndChar

StartChar: kgreenlandic
Encoding: 312 312 226
Width: 1175
VWidth: 0
Flags: W
HStem: 0 21G<156 354 813.904 1045> 1077 20G<156 354 768.429 1009>
VStem: 156 198<0 439 595 1082>
LayerCount: 2
UndoRedoHistory
Layer: 1
Undoes
EndUndoes
Redoes
EndRedoes
EndUndoRedoHistory
Fore
SplineSet
1009 1097 m 1
 596 628 l 1
 1045 0 l 1
 828 0 l 1
 446 542 l 1
 354 439 l 1
 354 0 l 1
 156 0 l 1
 156 1082 l 1
 354 1098 l 1
 354 752 l 2
 354 702 353 644 353 595 c 1
 409 655 470 717 524 782 c 2
 785 1097 l 1
 1009 1097 l 1
EndSplineSet
EndChar

StartChar: l
Encoding: 108 108 227
Width: 519
VWidth: 0
Flags: W
HStem: 0 21G<161 358> 1482 20G<161 358>
VStem: 161 197<0 1486>
LayerCount: 2
UndoRedoHistory
Layer: 1
Undoes
EndUndoes
Redoes
EndRedoes
EndUndoRedoHistory
Fore
SplineSet
259 1097 m 0,0,-1
259 0 m 0,1,-1
498 1097 m 0,2,-1
161 1486 m 1,3,-1
 358 1502 l 1,4,-1
 358 0 l 1,5,-1
 161 0 l 1,6,-1
 161 1486 l 1,3,-1
EndSplineSet
EndChar

StartChar: less
Encoding: 60 60 232
Width: 974
VWidth: 0
Flags: W
LayerCount: 2
UndoRedoHistory
Layer: 1
Undoes
EndUndoes
Redoes
EndRedoes
EndUndoRedoHistory
Fore
SplineSet
304 758 m 1
 823 462 l 1
 823 234 l 1
 127 667 l 1
 127 832 l 1
 823 1281 l 1
 823 1045 l 1
 304 758 l 1
EndSplineSet
EndChar

StartChar: logicalnot
Encoding: 172 172 233
Width: 1193
VWidth: 0
Flags: W
HStem: 647 150<127 902>
VStem: 902 149<262 647>
LayerCount: 2
UndoRedoHistory
Layer: 1
Undoes
EndUndoes
Redoes
EndRedoes
EndUndoRedoHistory
Fore
SplineSet
902 647 m 1
 127 647 l 1
 127 797 l 1
 1051 797 l 1
 1051 262 l 1
 902 262 l 1
 902 647 l 1
EndSplineSet
EndChar

StartChar: lslash
Encoding: 322 322 234
Width: 785
VWidth: 0
Flags: W
HStem: 0 21G<287 483>
VStem: 287 196<0 635 945 1528>
LayerCount: 2
UndoRedoHistory
Layer: 1
Undoes
EndUndoes
Redoes
EndRedoes
EndUndoRedoHistory
Fore
SplineSet
483 945 m 1
 645 1041 l 1
 645 848 l 1
 483 751 l 1
 483 0 l 1
 287 0 l 1
 287 635 l 1
 133 545 l 1
 133 738 l 1
 287 829 l 1
 287 1528 l 1
 483 1544 l 1
 483 945 l 1
EndSplineSet
EndChar

StartChar: m
Encoding: 109 109 235
Width: 1762
VWidth: 0
Flags: W
HStem: 0 21G<156 353 789 986 1415 1612> 990 136<450.358 749.376 1044.7 1388.39> 1077 20G<156 339.167>
VStem: 156 197<0 950.917> 156 180<1006.46 1097> 789 197<0 943.362> 1415 197<0 954.106>
LayerCount: 2
UndoRedoHistory
Layer: 1
Undoes
EndUndoes
Redoes
EndRedoes
EndUndoRedoHistory
Fore
SplineSet
1612 673 m 2xce
 1612 0 l 1
 1415 0 l 1
 1415 666 l 2
 1415 727 1418 779 1418 838 c 0
 1418 918 1405 990 1235 990 c 0
 1011 990 983 926 983 784 c 0
 983 736 986 680 986 614 c 2
 986 0 l 1
 789 0 l 1
 789 730 l 2
 789 936 784 990 566 990 c 0
 478 990 372 970 366 897 c 0
 359 805 353 707 353 605 c 2
 353 0 l 1
 156 0 l 1xd6
 156 1097 l 1
 336 1097 l 1xae
 355 977 l 1
 411 1090 514 1126 660 1126 c 0
 807 1126 896 1084 938 972 c 1
 991 1075 1093 1128 1254 1128 c 0
 1556 1128 1612 1026 1612 673 c 2xce
EndSplineSet
EndChar

StartChar: macron
Encoding: 175 175 236
Width: 846
VWidth: 0
Flags: W
HStem: 711 127<129 726>
VStem: 129 597<711 838>
LayerCount: 2
UndoRedoHistory
Layer: 1
Undoes
EndUndoes
Redoes
EndRedoes
EndUndoRedoHistory
Fore
SplineSet
427.5 1097 m 0,0,-1
129 838 m 1,1,-1
 726 838 l 1,2,-1
 726 711 l 1,3,-1
 129 711 l 1,4,-1
 129 838 l 1,1,-1
EndSplineSet
EndChar

StartChar: multiply
Encoding: 215 215 237
Width: 969
VWidth: 0
Flags: W
LayerCount: 2
UndoRedoHistory
Layer: 1
Undoes
EndUndoes
Redoes
EndRedoes
EndUndoRedoHistory
Fore
SplineSet
179 376 m 2
 139 420 l 1
 363 670 l 1
 355 678 348 687 341 695 c 2
 139 920 l 1
 166 949 192 979 218 1008 c 2
 258 1052 l 1
 484 802 l 1
 711 1052 l 1
 829 920 l 1
 606 670 l 1
 829 420 l 1
 711 288 l 1
 484 538 l 1
 258 288 l 1
 231 317 205 347 179 376 c 2
EndSplineSet
EndChar

StartChar: n
Encoding: 110 110 238
Width: 1174
VWidth: 0
Flags: W
HStem: 0 21G<156 353 827 1024> 990 138<455.316 797.349> 1077 20G<156 339.089>
VStem: 156 197<0 932.32> 156 180<1004.19 1097> 827 197<0 962.557>
LayerCount: 2
UndoRedoHistory
Layer: 1
Undoes
EndUndoes
Redoes
EndRedoes
EndUndoRedoHistory
Fore
SplineSet
1024 609 m 2xcc
 1024 0 l 1
 827 0 l 1
 827 664 l 2
 827 971 816 990 649 990 c 0
 393 990 353 924 353 780 c 2
 353 0 l 1
 156 0 l 1xd4
 156 1097 l 1
 336 1097 l 1xac
 355 974 l 1
 392 1091 536 1128 682 1128 c 0
 990 1128 1024 974 1024 609 c 2xcc
586 1097 m 0xa4
586 0 m 0
EndSplineSet
EndChar

StartChar: nine
Encoding: 57 57 242
Width: 1295
VWidth: 0
Flags: W
HStem: -2 127<397.901 888.98> 553 153<387.685 833.566> 1369 137<389.727 893.827>
VStem: 150 176<763.515 1308.22> 197 168<163.536 317.565> 959 184<213.661 719 771.217 1299.82>
LayerCount: 2
UndoRedoHistory
Layer: 1
Undoes
EndUndoes
Redoes
EndRedoes
EndUndoRedoHistory
Fore
SplineSet
646 706 m 0xf4
 938 706 959 779 959 976 c 0
 959 1008 958 1042 958 1080 c 0
 958 1296 957 1369 645 1369 c 0
 361 1369 326 1306 326 1154 c 0
 326 1105 330 1047 330 979 c 0
 330 758 336 706 646 706 c 0xf4
1143 841 m 2
 1143 731 l 2
 1143 173 1129 -2 652 -2 c 0
 422 -2 197 7 197 207 c 0
 197 225 197 262 206 317 c 1
 260 323 313 330 365 338 c 1xec
 365 165 369 125 642 125 c 0
 882 125 930 159 941 302 c 0
 951 440 952 579 955 719 c 1
 893 605 788 553 630 553 c 0
 269 553 150 623 150 1002 c 0
 150 1410 253 1506 620 1506 c 0
 1100 1506 1143 1378 1143 841 c 2
EndSplineSet
EndChar

StartChar: numbersign
Encoding: 35 35 244
Width: 1614
VWidth: 0
Flags: W
HStem: 0 21G<335 515.547 842 1021.45> 406 155<156 404 611 912 1113 1367> 963 168<254 497 709 1004 1208 1458> 1470 20G<586.435 772 1089.55 1269>
LayerCount: 2
UndoRedoHistory
Layer: 1
Undoes
EndUndoes
Redoes
EndRedoes
EndUndoRedoHistory
Fore
SplineSet
680 963 m 1
 611 561 l 1
 936 561 l 1
 1004 963 l 1
 680 963 l 1
1113 561 m 1
 1390 561 l 1
 1367 406 l 1
 1088 406 l 1
 1018 0 l 1
 842 0 l 1
 912 406 l 1
 584 406 l 1
 512 0 l 1
 335 0 l 1
 404 406 l 1
 129 406 l 1
 156 561 l 1
 430 561 l 1
 497 963 l 1
 227 963 l 1
 254 1131 l 1
 526 1131 l 1
 590 1490 l 1
 772 1490 l 1
 709 1131 l 1
 1031 1131 l 1
 1093 1490 l 1
 1269 1490 l 1
 1208 1131 l 1
 1481 1131 l 1
 1458 963 l 1
 1180 963 l 1
 1113 561 l 1
EndSplineSet
EndChar

StartChar: o
Encoding: 111 111 245
Width: 1188
VWidth: 0
Flags: W
HStem: -15 138<359.57 827.927> 989 139<357.612 830.388>
VStem: 132 208<154.781 958.548> 848 208<154.351 958.548>
LayerCount: 2
UndoRedoHistory
Layer: 1
Undoes
EndUndoes
Redoes
EndRedoes
EndUndoRedoHistory
Fore
SplineSet
593 -15 m 0
 158 -15 132 101 132 558 c 0
 132 1035 178 1128 594 1128 c 0
 1010 1128 1056 1035 1056 558 c 0
 1056 100 1029 -15 593 -15 c 0
595 123 m 0
 772 123 848 140 848 215 c 1
 859 546 l 1
 849 895 l 1
 849 989 713 989 594 989 c 0
 475 989 339 989 339 895 c 1
 329 546 l 1
 340 215 l 1
 340 142 418 123 595 123 c 0
572 1097 m 0
EndSplineSet
EndChar

StartChar: oe
Encoding: 339 339 250
Width: 1908
VWidth: 0
Flags: W
HStem: -24 139<374.411 822.954 1113.35 1560.04> 541 106<1066 1566> 981 138<375.329 839.576 1104.01 1531.84>
VStem: 145 197<153.326 942.906> 871 195<166.552 541 647 944.204> 1566 199<647 947.424> 1574 164<141.908 297>
LayerCount: 2
UndoRedoHistory
Layer: 1
Undoes
EndUndoes
Redoes
EndRedoes
EndUndoRedoHistory
Fore
SplineSet
937 1097 m 0,0,-1
870 545 m 0,1,-1
 870 659 859 771 859 879 c 0,4,-1
 859 978 748 981 642 981 c 0,7,-1
 434 981 358 973 352 879 c 0,10,-1
 345 771 342 658 342 544 c 0,13,-1
 342 427 353 315 353 207 c 0,16,-1
 353 119 460 115 607 115 c 0,19,-1
 692 115 750 122 782 130 c 0,22,-1
 862 151 871 305 871 441 c 0,25,-1
 871 478 870 514 870 545 c 0,1,-1
1066 647 m 1,28,-1
 1566 647 l 1,29,-1
 1566 727 1563 805 1557 881 c 0,32,-1
 1551 961 1497 982 1322 982 c 0,35,-1
 1228 982 1168 975 1140 966 c 0,38,-1
 1061 941 1069 768 1066 647 c 1,28,-1
1575 326 m 1,41,-1
 1738 297 l 1,42,-1
 1731 29 1654 -24 1351 -24 c 0,45,-1
 1152 -24 1043 -3 968 63 c 1,48,-1
 898 1 788 -24 606 -24 c 0,51,-1
 147 -24 145 136 145 599 c 0,54,-1
 145 1030 207 1119 607 1119 c 0,57,-1
 786 1119 898 1095 967 1034 c 1,60,-1
 1042 1100 1153 1119 1323 1119 c 0,63,-1
 1727 1119 1765 1018 1765 555 c 1,66,-1
 1725 549 1685 541 1645 541 c 2,69,-1
 1066 541 l 1,70,-1
 1069 393 1059 159 1149 131 c 0,73,-1
 1181 121 1241 114 1334 114 c 0,76,-1
 1516 114 1574 137 1574 193 c 0,79,-1
 1574 256 1575 326 1575 326 c 1,41,-1
EndSplineSet
EndChar

StartChar: ogonek
Encoding: 731 731 251
Width: 716
VWidth: 0
Flags: W
HStem: -554 127<247.5 503.991> -20 20G<292.5 482>
VStem: 112 189<-419.633 -252.359>
LayerCount: 2
UndoRedoHistory
Layer: 1
Undoes
EndUndoes
Redoes
EndRedoes
EndUndoRedoHistory
Fore
SplineSet
583 10 m 0,0,-1
374 0 m 1,1,-1
 482 0 l 1,2,-1
 377 -107 301 -234 301 -341 c 0,5,-1
 301 -407 338 -427 384 -427 c 0,8,-1
 441 -427 513 -397 548 -381 c 1,11,-1
 583 -459 l 1,12,-1
 542 -505 411 -554 297 -554 c 0,15,-1
 198 -554 112 -517 112 -409 c 0,18,-1
 112 -263 211 -163 374 0 c 1,1,-1
EndSplineSet
EndChar

StartChar: one
Encoding: 49 49 255
Width: 658
VWidth: 0
Flags: W
HStem: 0 21G<310 497> 1244 92<125 238.94> 1462 20G<316.333 497>
VStem: 310 187<0 1244>
LayerCount: 2
UndoRedoHistory
Layer: 1
Undoes
EndUndoes
Redoes
EndRedoes
EndUndoRedoHistory
Fore
SplineSet
342 1482 m 1
 497 1482 l 1
 497 0 l 1
 310 0 l 1
 310 1244 l 1
 125 1244 l 1
 125 1336 l 1
 218.333333333 1354 290.666666667 1402.66666667 342 1482 c 1
EndSplineSet
EndChar

StartChar: onehalf
Encoding: 189 189 256
Width: 885
VWidth: 0
Flags: W
HStem: 0 72<337 632> 573 73<338.501 546.456> 734 71<134 754> 1378 53<317 384.683> 1479 20G<399 477>
VStem: 246 91<72 158.481 470 570.206> 317 160<1378 1431> 386 91<898 1378 1433.33 1499> 550 92<357.834 569.381>
LayerCount: 2
UndoRedoHistory
Layer: 1
Undoes
EndUndoes
Redoes
EndRedoes
EndUndoRedoHistory
Fore
SplineSet
754 734 m 1xf880
 134 734 l 1
 134 805 l 1
 754 805 l 1
 754 734 l 1xf880
477 1499 m 1xf980
 477 898 l 1
 386 898 l 1
 386 1378 l 1xf980
 317 1378 l 1
 317 1431 l 1xfa80
 369 1431 399 1458 399 1499 c 1
 477 1499 l 1xf980
632 72 m 1
 632 0 l 1
 246 0 l 1
 246 75 l 2
 246 314 550 229 550 494 c 0
 550 572 541 573 428 573 c 0
 365 573 333 572 333 498 c 1
 336 463 l 1
 253 470 l 1
 249 495 247 512 247 522 c 0
 247 621 331 646 442 646 c 0
 581 646 642 624 642 484 c 0
 642 223 463 270 360 138 c 0
 346 120 337 99 337 72 c 1xfc80
 632 72 l 1
EndSplineSet
EndChar

StartChar: onequarter
Encoding: 188 188 257
Width: 885
VWidth: 0
Flags: W
HStem: 0 21G<428 519> 152 68<256 428 519 621> 734 71<137 757> 1378 53<330 397.683> 1479 20G<412 490>
VStem: 330 160<1378 1431> 399 91<898 1378 1433.33 1499> 428 91<0 152 220 544>
LayerCount: 2
UndoRedoHistory
Layer: 1
Undoes
EndUndoes
Redoes
EndRedoes
EndUndoRedoHistory
Fore
SplineSet
256 220 m 1xf9
 428 220 l 1
 428 544 l 1
 393 477.333333333 335.666666667 369.333333333 256 220 c 1xf9
757 734 m 1
 137 734 l 1
 137 805 l 1
 757 805 l 1
 757 734 l 1
490 1499 m 1xfa
 490 898 l 1
 399 898 l 1
 399 1378 l 1xfa
 330 1378 l 1
 330 1431 l 1xfc
 382 1431 412 1458 412 1499 c 1
 490 1499 l 1xfa
519 152 m 1xf9
 519 0 l 1
 428 0 l 1
 428 152 l 1
 214 152 l 1
 176 220 l 1
 407 616 l 1
 519 616 l 1
 519 220 l 1
 621 220 l 1
 621 152 l 1
 519 152 l 1xf9
EndSplineSet
EndChar

StartChar: ordfeminine
Encoding: 170 170 258
Width: 984
VWidth: 0
Flags: W
HStem: 497 111<301.508 619.052> 901 99<325.371 674> 1311 112<325.964 664.678>
VStem: 139 148<622.61 863.582> 191 123<1179 1292.9> 674 161<661.123 901 999 1296.92> 707 128<509 582.4>
LayerCount: 2
UndoRedoHistory
Layer: 1
Undoes
EndUndoes
Redoes
EndRedoes
EndUndoRedoHistory
Fore
SplineSet
674 804 m 1xf4
 674 901 l 1
 347 897 287 871 287 792 c 0
 287 637 287 608 432 608 c 0
 648 608 670 693 674 804 c 1xf4
835 1104 m 2
 835 509 l 1
 707 509 l 1
 682 637 l 1
 647 516 557 497 409 497 c 0
 193 497 139 579 139 797 c 0xf2
 139 955 326 1000 603 1000 c 0
 627 1000 652 999 674 999 c 1
 674 1201 l 2
 674 1288 668 1311 498 1311 c 0
 336 1311 314 1283 314 1213 c 0
 314 1202 314 1189 315 1175 c 1
 192 1179 l 1
 191 1189 191 1198 191 1207 c 0xec
 191 1402 312 1423 508 1423 c 0
 754 1423 835 1357 835 1104 c 2
EndSplineSet
EndChar

StartChar: ordmasculine
Encoding: 186 186 259
Width: 975
VWidth: 0
Flags: W
HStem: 471 104<306.594 668.957> 1216 103<312.775 663.225>
VStem: 144 156<589.729 1192.59> 676 156<589.729 1192.59>
LayerCount: 2
UndoRedoHistory
Layer: 1
Undoes
EndUndoes
Redoes
EndRedoes
EndUndoRedoHistory
Fore
SplineSet
488 575 m 0
 620 575 674 588 676 643 c 0
 680 723 684 805 684 892 c 0
 684 978 676 1063 676 1143 c 0
 676 1206 587 1216 488 1216 c 0
 389 1216 300 1206 300 1143 c 0
 300 1063 292 978 292 892 c 0
 292 805 296 723 300 643 c 0
 302 588 356 575 488 575 c 0
487 1319 m 2
 489 1319 l 2
 796 1319 832 1249 832 895 c 0
 832 558 809 471 487 471 c 0
 167 471 144 558 144 895 c 0
 144 1249 180 1319 487 1319 c 2
EndSplineSet
EndChar

StartChar: oslash
Encoding: 248 248 260
Width: 1212
VWidth: 0
Flags: W
HStem: -15 138<375.398 449 570 837.764> 989 139<370.303 663 783 838.141>
VStem: 144 197<155.585 947.971> 871 197<154.781 950.198>
LayerCount: 2
UndoRedoHistory
Layer: 1
Undoes
EndUndoes
Redoes
EndRedoes
EndUndoRedoHistory
Fore
SplineSet
588 1097 m 0,0,-1
754 982 m 1,1,-1
 570 124 l 1,2,-1
 581 124 593 123 605 123 c 2,5,-1
 607 123 l 1,6,-1
 784 127 860 140 860 215 c 0,9,-1
 860 319 871 437 871 546 c 0,12,-1
 871 667 861 782 861 895 c 0,15,-1
 861 949 815 972 754 982 c 1,1,-1
479 130 m 1,18,-1
 663 989 l 1,19,-1
 606 989 l 2,20,-1
 487 989 351 989 351 895 c 0,23,-1
 351 782 341 667 341 546 c 0,26,-1
 341 437 352 319 352 215 c 0,29,-1
 352 161 392 140 479 130 c 1,18,-1
607 -15 m 2,32,-1
 605 -15 l 2,33,-1
 583 -15 561 -15 541 -14 c 1,36,-1
 501 -200 l 1,37,-1
 408 -200 l 1,38,-1
 449 -8 l 1,39,-1
 163 23 144 163 144 558 c 0,42,-1
 144 1035 190 1128 606 1128 c 0,45,-1
 637 1128 665 1127 692 1126 c 1,48,-1
 729 1299 l 1,49,-1
 822 1299 l 1,50,-1
 783 1119 l 1,51,-1
 1035 1087 1068 956 1068 558 c 0,54,-1
 1068 101 1042 -15 607 -15 c 2,32,-1
EndSplineSet
EndChar

StartChar: p
Encoding: 112 112 262
Width: 1177
VWidth: 0
Flags: W
HStem: -387 21G<153 350> -15 137<414.435 814.124> 990 138<451.082 820.101> 1077 20G<153 335.14>
VStem: 153 197<-372 103 165.625 950.917> 153 179<1005.7 1097> 858 195<160.713 954.59>
LayerCount: 2
UndoRedoHistory
Layer: 1
Undoes
EndUndoes
Redoes
EndRedoes
EndUndoRedoHistory
Fore
SplineSet
606 122 m 0xe2
 852 122 858 156 858 415 c 0
 858 484 856 553 856 606 c 0
 855 697 855 786 850 872 c 0
 845 964 799 990 606 990 c 0
 352 990 346 946 346 693 c 2
 346 294 l 2
 346 181 388 122 606 122 c 0xe2
1053 541 m 0
 1053 145 1011 -15 652 -15 c 0
 479 -15 375 26 350 103 c 1
 350 -372 l 1xea
 153 -387 l 1
 153 1097 l 1
 332 1097 l 1xd6
 351 976 l 1
 391 1076 496 1128 671 1128 c 0
 1025 1128 1053 962 1053 541 c 0
EndSplineSet
EndChar

StartChar: paragraph
Encoding: 182 182 263
Width: 1130
VWidth: 0
Flags: W
HStem: 0 21G<491 645 816 969>
VStem: 134 835<991.358 1372.48> 491 154<0 844> 816 153<0 844>
LayerCount: 2
UndoRedoHistory
Layer: 1
Undoes
EndUndoes
Redoes
EndRedoes
EndUndoRedoHistory
Fore
SplineSet
645 844 m 1xb0
 645 0 l 1
 491 0 l 1
 491 845 l 1xb0
 264 845 134 955 134 1190 c 0xc0
 134 1445 295 1521 582 1521 c 2
 969 1521 l 1
 969 0 l 1
 816 0 l 1
 816 844 l 1
 645 844 l 1xb0
EndSplineSet
EndChar

StartChar: parenleft
Encoding: 40 40 264
Width: 804
VWidth: 0
Flags: W
HStem: -229 137<572.685 679.57> 1548 137<572.685 679.57>
VStem: 146 191<289.955 1166.05>
LayerCount: 2
UndoRedoHistory
Layer: 1
Undoes
EndUndoes
Redoes
EndRedoes
EndUndoRedoHistory
Fore
SplineSet
146 727 m 2
 146 729 l 2
 146 1239 279 1651 678 1685 c 1
 693 1548 l 1
 425 1507 337 1195 337 728 c 0
 337 261 425 -51 693 -92 c 1
 678 -229 l 1
 279 -195 146 217 146 727 c 2
EndSplineSet
EndChar

StartChar: parenright
Encoding: 41 41 265
Width: 804
VWidth: 0
Flags: W
HStem: -229 137<124.43 231.315> 1548 137<124.43 231.315>
VStem: 467 191<289.955 1166.05>
LayerCount: 2
UndoRedoHistory
Layer: 1
Undoes
EndUndoes
Redoes
EndRedoes
EndUndoRedoHistory
Fore
SplineSet
658 729 m 2
 658 727 l 2
 658 217 525 -195 126 -229 c 1
 111 -92 l 1
 379 -51 467 261 467 728 c 0
 467 1195 379 1507 111 1548 c 1
 126 1685 l 1
 525 1651 658 1239 658 729 c 2
EndSplineSet
EndChar

StartChar: percent
Encoding: 37 37 266
Width: 2264
VWidth: 0
Flags: W
HStem: 1 21G<857 1089.5> 166 132<1593.96 1947.26> 584 132<310.956 664.259> 889 131<1595.41 1948.29> 1307 131<312.413 665.293>
VStem: 144 147<739.569 1286.99> 687 155<745.156 1290.51> 1427 147<321.569 868.994> 1970 155<327.156 872.511>
LayerCount: 2
UndoRedoHistory
Layer: 1
Undoes
EndUndoes
Redoes
EndRedoes
EndUndoRedoHistory
Fore
SplineSet
687 930 m 2
 687 1075 l 2
 687 1304 683 1307 491 1307 c 0
 308 1307 292 1306 292 1079 c 0
 292 1022 291 974 291 934 c 0
 291 730 305 716 474 716 c 0
 673 716 687 731 687 930 c 2
842 898 m 0
 842 652 751 584 491 584 c 0
 148 584 144 683 144 1124 c 0
 144 1376 236 1438 491 1438 c 0
 834 1438 842 1336 842 898 c 0
1970 512 m 2
 1970 657 l 2
 1970 886 1966 889 1774 889 c 0
 1591 889 1575 888 1575 661 c 0
 1575 604 1574 556 1574 516 c 0
 1574 312 1588 298 1757 298 c 0
 1956 298 1970 313 1970 512 c 2
1236 1573 m 1
 1407 1573 l 1
 1280 1048 1154 526 1025 1 c 1
 857 1 l 1
 984 525 1110 1048 1236 1573 c 1
2125 480 m 0
 2125 234 2034 166 1774 166 c 0
 1431 166 1427 265 1427 706 c 0
 1427 958 1519 1020 1774 1020 c 0
 2117 1020 2125 918 2125 480 c 0
EndSplineSet
EndChar

StartChar: period
Encoding: 46 46 267
Width: 536
VWidth: 0
Flags: W
HStem: -31 295<164.923 369.974>
VStem: 127 281<7.83351 224.145>
LayerCount: 2
UndoRedoHistory
Layer: 1
Undoes
EndUndoes
Redoes
EndRedoes
EndUndoRedoHistory
Fore
SplineSet
408 117 m 0
 408 17 340 -31 270 -31 c 0
 199 -31 127 20 127 117 c 0
 127 216 195 264 264 264 c 0
 335 264 408 213 408 117 c 0
EndSplineSet
EndChar

StartChar: periodcentered
Encoding: 183 183 268
Width: 531
VWidth: 0
Flags: W
HStem: 528 308<166.628 365.718>
VStem: 125 280<569.454 796.676>
LayerCount: 2
UndoRedoHistory
Layer: 1
Undoes
EndUndoes
Redoes
EndRedoes
EndUndoRedoHistory
Fore
SplineSet
265 528 m 0
 184 528 125 596 125 682 c 0
 125 771 177 836 265 836 c 0
 347 836 405 769 405 682 c 0
 405 594 353 528 265 528 c 0
EndSplineSet
EndChar

StartChar: plus
Encoding: 43 43 269
Width: 1030
VWidth: 0
Flags: W
HStem: 585 169<124 431 597 905> 1097 20G<431 597>
VStem: 431 166<223 585 754 1117>
LayerCount: 2
UndoRedoHistory
Layer: 1
Undoes
EndUndoes
Redoes
EndRedoes
EndUndoRedoHistory
Fore
SplineSet
431 223 m 1
 431 585 l 1
 124 585 l 1
 124 754 l 1
 431 754 l 1
 431 1117 l 1
 597 1117 l 1
 597 754 l 1
 905 754 l 1
 905 585 l 1
 597 585 l 1
 597 223 l 1
 431 223 l 1
EndSplineSet
EndChar

StartChar: plusminus
Encoding: 177 177 270
Width: 1212
VWidth: 0
Flags: W
HStem: 0 150<144 1068> 647 150<144 531 681 1068>
VStem: 531 150<262 647 797 1186>
LayerCount: 2
UndoRedoHistory
Layer: 1
Undoes
EndUndoes
Redoes
EndRedoes
EndUndoRedoHistory
Fore
SplineSet
144 150 m 1
 1068 150 l 1
 1068 0 l 1
 144 0 l 1
 144 150 l 1
681 647 m 1
 681 262 l 1
 531 262 l 1
 531 647 l 1
 144 647 l 1
 144 797 l 1
 531 797 l 1
 531 1186 l 1
 681 1186 l 1
 681 797 l 1
 1068 797 l 1
 1068 647 l 1
 681 647 l 1
EndSplineSet
EndChar

StartChar: q
Encoding: 113 113 271
Width: 1188
VWidth: 0
Flags: W
HStem: -387 21G<837 1034> -15 137<359.779 770.164> 990 138<373.234 737.468> 1077 20G<850.86 1034>
VStem: 134 194<159.663 940.163> 837 197<-372 103 155.052 949.065> 854 180<1005.7 1097>
LayerCount: 2
UndoRedoHistory
Layer: 1
Undoes
EndUndoes
Redoes
EndRedoes
EndUndoRedoHistory
Fore
SplineSet
579 990 m 0xec
 340 990 328 949 328 698 c 0
 328 506 329 377 337 233 c 0
 342 139 384 122 581 122 c 0
 776 122 837 151 837 252 c 2
 837 844 l 2
 837 954 766 990 579 990 c 0xec
854 1097 m 1xda
 1034 1097 l 1xda
 1034 -372 l 1
 837 -387 l 1
 837 103 l 1
 808 25 707 -15 533 -15 c 0
 142 -15 134 209 134 557 c 0
 134 969 170 1128 517 1128 c 0xec
 690 1128 799 1075 835 976 c 1
 854 1097 l 1xda
EndSplineSet
EndChar

StartChar: question
Encoding: 63 63 272
Width: 883
VWidth: 0
Flags: W
HStem: -31 295<243.923 448.974> 1333 189<173.053 498.851>
VStem: 206 281<7.83351 224.145> 304 103<483 628.605> 554 197<982.341 1280.2>
LayerCount: 2
UndoRedoHistory
Layer: 1
Undoes
EndUndoes
Redoes
EndRedoes
EndUndoRedoHistory
Fore
SplineSet
487 117 m 0xe8
 487 17 419 -31 349 -31 c 0
 278 -31 206 20 206 117 c 0
 206 216 274 264 343 264 c 0
 414 264 487 213 487 117 c 0xe8
751 1161 m 0
 751 1030 695 918 581 803 c 0
 476 697 415 593 407 483 c 1
 304 483 l 1xd8
 304 679 360 778 471 926 c 0
 529 1003 554 1054 554 1149 c 0
 554 1259 493 1333 374 1333 c 0
 327 1333 260 1321 147 1293 c 1
 126 1457 l 1
 220 1500 302 1522 381 1522 c 0
 621 1522 751 1395 751 1161 c 0
EndSplineSet
EndChar

StartChar: questiondown
Encoding: 191 191 273
Width: 921
VWidth: 0
Flags: W
HStem: -22 188<381.159 715.012> 1225 308<424.375 625.428>
VStem: 126 196<223.062 511.221> 384 284<1265.37 1490.82> 469 102<857.731 1019>
LayerCount: 2
UndoRedoHistory
Layer: 1
Undoes
EndUndoes
Redoes
EndRedoes
EndUndoRedoHistory
Fore
SplineSet
762 223 m 1xe8
 801 59 l 1
 687 4 586 -22 498 -22 c 0
 257 -22 126 101 126 338 c 0
 126 473 209 588 307 704 c 0
 424 844 454 869 469 1020 c 1
 503 1020 538 1019 571 1019 c 1
 570 808 505 717 392 552 c 0
 343 481 322 435 322 350 c 0
 322 233 389 166 523 166 c 0
 573 166 651 186 762 223 c 1xe8
668 1379 m 0xf0
 668 1292 614 1225 527 1225 c 0
 444 1225 384 1288 384 1379 c 0
 384 1465 438 1533 526 1533 c 0
 610 1533 668 1461 668 1379 c 0xf0
EndSplineSet
EndChar

StartChar: quotedbl
Encoding: 34 34 274
Width: 721
VWidth: 0
Flags: W
HStem: 923 577<203.987 242.773 482.987 521.773>
VStem: 136 173<1081.26 1490.13> 415 173<1081.26 1490.13>
LayerCount: 2
UndoRedoHistory
Layer: 1
Undoes
EndUndoes
Redoes
EndRedoes
EndUndoRedoHistory
Fore
SplineSet
515 923 m 1
 490 929 l 1
 490 929 415 1284 415 1363 c 0
 415 1460 429 1500 502 1500 c 0
 558 1500 588 1460 588 1378 c 0
 588 1295 515 923 515 923 c 1
236 923 m 1
 211 929 l 1
 211 929 136 1284 136 1363 c 0
 136 1460 150 1500 223 1500 c 0
 279 1500 309 1460 309 1378 c 0
 309 1295 236 923 236 923 c 1
EndSplineSet
EndChar

StartChar: quotedblbase
Encoding: 8222 8222 275
Width: 718
VWidth: 0
Flags: W
HStem: -276 577<197.987 236.773 481.987 520.773>
VStem: 130 173<-117.743 291.13> 414 173<-117.743 291.13>
LayerCount: 2
UndoRedoHistory
Layer: 1
Undoes
EndUndoes
Redoes
EndRedoes
EndUndoRedoHistory
Fore
SplineSet
514 -276 m 1
 489 -270 l 1
 489 -270 414 85 414 164 c 0
 414 261 428 301 501 301 c 0
 557 301 587 261 587 179 c 0
 587 96 514 -276 514 -276 c 1
230 -276 m 1
 205 -270 l 1
 205 -270 130 85 130 164 c 0
 130 261 144 301 217 301 c 0
 273 301 303 261 303 179 c 0
 303 96 230 -276 230 -276 c 1
EndSplineSet
EndChar

StartChar: quotedblleft
Encoding: 8220 8220 276
Width: 1049
VWidth: 0
Flags: W
HStem: 1000 285<297 389.898 778 867.054> 1484 68<358.918 436 838.92 914>
VStem: 136 161<1285 1376.69> 614 164<1285 1377.14>
LayerCount: 2
UndoRedoHistory
Layer: 1
Undoes
EndUndoes
Redoes
EndRedoes
EndUndoRedoHistory
Fore
SplineSet
436 1552 m 1
 436 1484 l 1
 349 1484 297 1389 297 1285 c 1
 386 1285 431 1235 431 1135 c 0
 431 1077 375 1000 289 1000 c 0
 187 1000 136 1067 136 1202 c 0
 136 1380 264 1552 436 1552 c 1
914 1552 m 1
 914 1484 l 1
 831 1484 778 1389 778 1285 c 1
 865 1285 909 1235 909 1135 c 0
 909 1082 863 1000 751 1000 c 0
 666 1000 614 1089 614 1202 c 0
 614 1381 748 1552 914 1552 c 1
EndSplineSet
EndChar

StartChar: quotedblright
Encoding: 8221 8221 277
Width: 1049
VWidth: 0
Flags: W
HStem: 1000 68<147 223.546 626 702.748> 1267 285<192.865 284 672.944 764>
VStem: 284 165<1176.64 1267> 764 162<1176.64 1267>
LayerCount: 2
UndoRedoHistory
Layer: 1
Undoes
EndUndoes
Redoes
EndRedoes
EndUndoRedoHistory
Fore
SplineSet
147 1000 m 1
 147 1068 l 1
 233 1068 284 1163 284 1267 c 1
 196 1267 152 1317 152 1417 c 0
 152 1474 201 1552 312 1552 c 0
 393 1552 449 1465 449 1350 c 0
 449 1175 317 1000 147 1000 c 1
626 1000 m 1
 626 1068 l 1
 713 1068 764 1160 764 1267 c 1
 675 1267 631 1317 631 1417 c 0
 631 1471 679 1552 792 1552 c 0
 875 1552 926 1466 926 1350 c 0
 926 1175 797 1000 626 1000 c 1
EndSplineSet
EndChar

StartChar: quoteleft
Encoding: 8216 8216 278
Width: 568
VWidth: 0
Flags: W
HStem: 1484 68<359.385 434>
VStem: 136 161<1285 1379.36>
LayerCount: 2
UndoRedoHistory
Layer: 1
Undoes
EndUndoes
Redoes
EndRedoes
EndUndoRedoHistory
Fore
SplineSet
434 1552 m 1
 434 1484 l 1
 349 1484 297 1387 297 1285 c 1
 385 1285 429 1235 429 1135 c 0
 429 1081 376 1000 289 1000 c 0
 187 1000 136 1067 136 1202 c 0
 136 1386 269 1552 434 1552 c 1
EndSplineSet
EndChar

StartChar: quoteright
Encoding: 8217 8217 279
Width: 569
VWidth: 0
Flags: W
HStem: 1000 68<147 223.015>
VStem: 284 162<1176.64 1267>
LayerCount: 2
UndoRedoHistory
Layer: 1
Undoes
EndUndoes
Redoes
EndRedoes
EndUndoRedoHistory
Fore
SplineSet
147 1000 m 1
 147 1068 l 1
 233 1068 284 1163 284 1267 c 1
 196 1267 152 1317 152 1417 c 0
 152 1474 201 1552 312 1552 c 0
 395 1552 446 1466 446 1350 c 0
 446 1175 316 1000 147 1000 c 1
EndSplineSet
EndChar

StartChar: quotesinglbase
Encoding: 8218 8218 280
Width: 434
VWidth: 0
Flags: W
HStem: -276 577<197.987 236.773>
VStem: 130 173<-117.743 291.13>
LayerCount: 2
UndoRedoHistory
Layer: 1
Undoes
EndUndoes
Redoes
EndRedoes
EndUndoRedoHistory
Fore
SplineSet
230 -276 m 1
 205 -270 l 1
 205 -270 130 85 130 164 c 0
 130 261 144 301 217 301 c 0
 273 301 303 261 303 179 c 0
 303 96 230 -276 230 -276 c 1
EndSplineSet
EndChar

StartChar: quotesingle
Encoding: 39 39 281
Width: 442
VWidth: 0
Flags: W
HStem: 923 577<203.987 242.773>
VStem: 136 173<1081.26 1490.13>
LayerCount: 2
UndoRedoHistory
Layer: 1
Undoes
EndUndoes
Redoes
EndRedoes
EndUndoRedoHistory
Fore
SplineSet
236 923 m 1
 211 929 l 1
 211 929 136 1284 136 1363 c 0
 136 1460 150 1500 223 1500 c 0
 279 1500 309 1460 309 1378 c 0
 309 1295 236 923 236 923 c 1
EndSplineSet
EndChar

StartChar: r
Encoding: 114 114 282
Width: 731
VWidth: 0
Flags: W
HStem: 0 21G<156 353> 960 165<442.66 637> 1077 20G<156 338.252>
VStem: 156 197<0 913.692> 156 179<1008.83 1097>
LayerCount: 2
UndoRedoHistory
Layer: 1
Undoes
EndUndoes
Redoes
EndRedoes
EndUndoRedoHistory
Fore
SplineSet
645 1122 m 1xc8
 637 955 l 1
 614 958 591 960 565 960 c 0
 373 960 346 883 346 704 c 0
 346 624 353 541 353 471 c 2
 353 0 l 1
 156 0 l 1xd0
 156 1097 l 1
 335 1097 l 1xa8
 355 974 l 1
 396 1069 482 1125 600 1125 c 0
 615 1125 630 1124 645 1122 c 1xc8
359 1097 m 0xa0
359 0 m 0
EndSplineSet
EndChar

StartChar: registered
Encoding: 174 174 286
Width: 1826
VWidth: 0
Flags: W
HStem: 0 92<670.501 1164.81> 734 98<724 1118.61> 1183 105<724 1118.42> 1438 94<665.367 1152.93>
VStem: 136 113<505.001 1023.31> 597 127<267 734 832 1183> 1145 130<268 714.046 859.87 1158.43> 1577 113<505.494 1021.91>
LayerCount: 2
UndoRedoHistory
Layer: 1
Undoes
EndUndoes
Redoes
EndRedoes
EndUndoRedoHistory
Fore
SplineSet
955 1183 m 2
 724 1183 l 1
 724 832 l 1
 921 832 l 2
 1112 832 1146 854 1146 1007 c 0
 1146 1176 1088 1183 955 1183 c 2
1145 501 m 0
 1145 507 1145 512 1145 518 c 0
 1145 694 1143 734 988 734 c 2
 724 734 l 1
 724 578 725 423 725 267 c 1
 597 267 l 1
 597 1288 l 1
 921 1288 l 2
 1195 1288 1283 1248 1283 1021 c 0
 1283 874 1226 796 1113 788 c 1
 1212 783 1275 718 1275 609 c 2
 1275 268 l 1
 1141 268 l 1
 1141 339 1145 424 1145 501 c 0
914 92 m 0
 1262 92 1577 331 1577 760 c 0
 1577 1211 1244 1438 912 1438 c 0
 580 1438 249 1212 249 760 c 0
 249 317 579 92 914 92 c 0
912 0 m 0
 507 0 136 271 136 762 c 0
 136 1272 524 1532 914 1532 c 0
 1309 1532 1690 1267 1690 761 c 0
 1690 260 1306 0 912 0 c 0
EndSplineSet
EndChar

StartChar: ring
Encoding: 730 730 287
Width: 745
VWidth: 0
Flags: W
HStem: 148 117<281.497 458.777> 538 118<286.214 458.36>
VStem: 117 140<289.24 511.969> 487 143<291.719 510.778>
LayerCount: 2
UndoRedoHistory
Layer: 1
Undoes
EndUndoes
Redoes
EndRedoes
EndUndoRedoHistory
Fore
SplineSet
373.5 1097 m 0,0,-1
372 656 m 0,1,-1
 520 656 630 551 630 402 c 0,4,-1
 630 251 523 148 374 148 c 0,7,-1
 236 148 117 242 117 402 c 0,10,-1
 117 554 223 656 372 656 c 0,1,-1
358 538 m 0,13,-1
 299 538 257 468 257 402 c 0,16,-1
 257 311 300 265 385 265 c 0,19,-1
 445 265 487 335 487 400 c 0,22,-1
 487 485 442 538 358 538 c 0,13,-1
EndSplineSet
EndChar

StartChar: s
Encoding: 115 115 288
Width: 1030
VWidth: 0
Flags: W
HStem: -15 137<316.029 740.614> 991 137<331.797 750.553>
VStem: 127 155<160.048 287> 131 180<700.555 961.131> 777 180<162.746 459.026> 778 134<880 965.035>
LayerCount: 2
UndoRedoHistory
Layer: 1
Undoes
EndUndoes
Redoes
EndRedoes
EndUndoRedoHistory
Fore
SplineSet
559 122 m 0xe8
 773 122 777 179 777 363 c 0
 777 369 777 376 777 383 c 0xe8
 777 502 634 490 505 505 c 0
 244 536 131 567 131 838 c 0
 131 1076 248 1128 537 1128 c 0
 766 1128 912 1114 912 880 c 1
 778 839 l 1
 765 983 744 991 530 991 c 0
 350 991 311 954 311 882 c 2
 311 780 l 2xd4
 311 685 349 683 589 653 c 0
 869 618 957 594 957 304 c 0
 957 49 845 -15 573 -15 c 0
 295 -15 127 -5 127 287 c 1
 282 327 l 1
 297 130 296 122 559 122 c 0xe8
500 1097 m 0
500 0 m 0
EndSplineSet
EndChar

StartChar: section
Encoding: 167 167 294
Width: 1103
VWidth: 0
Flags: W
HStem: -140 130<363.073 736.183> 1482 131<374.45 741.173>
VStem: 154 172<26.9828 210> 169 176<616.388 935.603 1103.39 1453.97> 766 177<18.6235 362.973 550.558 845.141 1263 1451.66>
LayerCount: 2
UndoRedoHistory
Layer: 1
Undoes
EndUndoes
Redoes
EndRedoes
EndUndoRedoHistory
Fore
SplineSet
154 210 m 1xe8
 326 210 l 1xe8
 326 -4 375 -10 571 -10 c 0
 739 -10 767 18 767 198 c 0
 767 331 734 390 625 403 c 0
 267 444 169 482 169 762 c 0xd8
 169 866 201 943 265 993 c 1
 202 1050 171 1146 171 1282 c 0
 171 1548 275 1613 558 1613 c 0
 845 1613 948 1541 948 1263 c 1
 777 1263 l 1
 777 1453 743 1482 556 1482 c 0
 397 1482 343 1478 343 1297 c 2
 343 1277 l 2
 343 1248 342 1224 342 1203 c 0
 342 1096 364 1090 638 1043 c 0
 849 1006 943 961 943 733 c 0
 943 620 910 539 841 489 c 1
 907 432 940 334 940 195 c 0
 940 -80 826 -140 547 -140 c 0
 265 -140 154 -74 154 210 c 1xe8
345 775 m 0xd8
 345 569 382 600 734 543 c 1
 755 559 766 611 766 685 c 0
 766 814 742 849 675 870 c 0
 511 920 400 930 370 939 c 1
 354 878 345 824 345 775 c 0xd8
EndSplineSet
EndChar

StartChar: semicolon
Encoding: 59 59 295
Width: 601
VWidth: 0
Flags: W
HStem: -97 68<140 243.232> 925 308<212.828 410.372>
VStem: 167 289<172.657 390.797 970.5 1187.5> 312 144<71.2096 130>
LayerCount: 2
UndoRedoHistory
Layer: 1
Undoes
EndUndoes
Redoes
EndRedoes
EndUndoRedoHistory
Fore
SplineSet
140 -97 m 1xe0
 140 -29 l 1
 228 -29 312 41 312 130 c 1xd0
 229 130 167 199 167 285 c 0
 167 369 222 439 314 439 c 0
 401 439 456 354 456 260 c 0
 456 90 338 -101 199 -101 c 0
 170 -101 151 -100 140 -97 c 1xe0
452 1079 m 0
 452 991 400 925 312 925 c 0
 228 925 172 995 172 1079 c 0
 172 1165 223 1233 312 1233 c 0
 394 1233 452 1163 452 1079 c 0
EndSplineSet
EndChar

StartChar: seven
Encoding: 55 55 296
Width: 981
VWidth: 0
Flags: W
HStem: 0 21G<231 477.5> 1330 152<118 693>
VStem: 231 184<0 148.836>
LayerCount: 2
UndoRedoHistory
Layer: 1
Undoes
EndUndoes
Redoes
EndRedoes
EndUndoRedoHistory
Fore
SplineSet
118 1330 m 1
 118 1482 l 1
 862 1482 l 1
 862 1312 l 1
 700 893 540 457 415 0 c 1
 231 0 l 1
 365 455 522 897 693 1330 c 1
 118 1330 l 1
EndSplineSet
EndChar

StartChar: six
Encoding: 54 54 297
Width: 1301
VWidth: 0
Flags: W
HStem: -16 137<409.805 921.613> 794 154<460.432 924.032> 1364 136<425.005 885.238>
VStem: 152 184<190.667 726.875 782 1266.68> 910 168<1172.43 1341.08> 975 181<175.74 736.592>
LayerCount: 2
UndoRedoHistory
Layer: 1
Undoes
EndUndoes
Redoes
EndRedoes
EndUndoRedoHistory
Fore
SplineSet
975 530 m 0xf4
 975 749 964 794 660 794 c 0
 341 794 338 705 338 524 c 0
 338 466 336 415 336 370 c 0
 336 201 365 121 659 121 c 0
 955 121 974 177 974 333 c 0
 974 418 975 479 975 530 c 0xf4
1156 488 m 0
 1156 95 1067 -16 685 -16 c 0
 195 -16 152 110 152 655 c 2
 152 761 l 2
 152 1286 167 1500 662 1500 c 0
 900 1500 1078 1479 1078 1272 c 0
 1078 1256 1075 1223 1070 1173 c 1
 1016 1167 962 1160 910 1152 c 1xf8
 910 1348 907 1364 672 1364 c 0
 434 1364 364 1322 355 1187 c 0
 347 1053 344 919 341 782 c 1
 396 882 484 948 675 948 c 0
 1035 948 1156 880 1156 488 c 0
EndSplineSet
EndChar

StartChar: slash
Encoding: 47 47 298
Width: 770
VWidth: 0
Flags: W
VStem: 113 545
LayerCount: 2
UndoRedoHistory
Layer: 1
Undoes
EndUndoes
Redoes
EndRedoes
EndUndoRedoHistory
Fore
SplineSet
113 -26 m 1
 480 1516 l 1
 658 1516 l 1
 292 -26 l 1
 113 -26 l 1
EndSplineSet
EndChar

StartChar: sterling
Encoding: 163 163 300
Width: 1497
VWidth: 0
Flags: W
HStem: 0 220<148 279.474> 0 178<495.126 1163.16> 701 146<150 298 502 1049> 1353 189<525.717 1134.85>
VStem: 282 200<852.489 1306.97> 297 205<251.124 701 848 1107.83> 1161 177<1075.14 1322.27> 1194 155<264.296 437>
LayerCount: 2
UndoRedoHistory
Layer: 1
Undoes
EndUndoes
Redoes
EndRedoes
EndUndoRedoHistory
Fore
SplineSet
1338 1077 m 1xba
 1161 1054 l 1
 1158 1126 1157 1199 1149 1271 c 0
 1141 1344 1072 1353 852 1353 c 0
 508 1353 482 1307 482 1207 c 0xba
 482 1089 493 970 499 847 c 1
 1049 847 l 1
 1049 701 l 1
 502 701 l 1
 500 546 493 396 478 244 c 1
 494 193 599 178 825 178 c 0
 1055 178 1174 186 1179 255 c 2
 1194 465 l 1
 1349 437 l 1
 1330 43 1306 0 879 0 c 2
 805 0 l 2x75
 556 0 406 6 376 139 c 1
 360 46 283 0 148 0 c 1
 148 220 l 1
 275 229 293 245 297 341 c 0xb5
 300 420 301 578 302 702 c 1
 150 702 l 1
 150 848 l 1
 298 848 l 1
 291 938 282 1023 282 1112 c 0
 282 1488 459 1542 828 1542 c 0
 1312 1542 1318 1434 1338 1077 c 1xba
EndSplineSet
EndChar

StartChar: t
Encoding: 116 116 301
Width: 793
VWidth: 0
Flags: W
HStem: -15 148<461.978 673> 985 112<108 257 453 655>
VStem: 257 196<136.464 985 1097 1409>
LayerCount: 2
UndoRedoHistory
Layer: 1
Undoes
EndUndoes
Redoes
EndRedoes
EndUndoRedoHistory
Fore
SplineSet
677 139 m 1
 673 -1 l 1
 619 -10 538 -15 491 -15 c 0
 291 -15 257 77 257 238 c 2
 257 985 l 1
 108 985 l 1
 108 1097 l 1
 257 1097 l 1
 257 1409 l 1
 453 1425 l 1
 453 1097 l 1
 655 1097 l 1
 655 985 l 1
 453 985 l 1
 453 305 l 2
 453 172 455 133 521 133 c 0
 563 133 637 136 677 139 c 1
317 549 m 0
317 0 m 0
EndSplineSet
EndChar

StartChar: thorn
Encoding: 254 254 304
Width: 1213
VWidth: 0
Flags: W
HStem: -24 168<454.793 825.95> 1001 167<441.505 840.845>
VStem: 162 196<-385 104 173.312 973.088 1041 1564> 871 198<197.173 966.505>
LayerCount: 2
UndoRedoHistory
Layer: 1
Undoes
EndUndoes
Redoes
EndRedoes
EndUndoRedoHistory
Fore
SplineSet
355 355 m 0
 355 145 398 144 620 144 c 0
 849 144 871 189 871 392 c 0
 871 440 870 496 870 562 c 0
 870 647 871 715 871 770 c 0
 871 995 850 1001 641 1001 c 0
 365 1001 356 981 356 798 c 0
 356 741 358 677 358 621 c 0
 358 506 355 420 355 355 c 0
1069 550 m 2
 1069 526 l 2
 1069 124 1020 -24 724 -24 c 0
 526 -24 400 20 358 104 c 1
 358 -385 l 1
 162 -401 l 1
 162 1564 l 1
 357 1579 l 1
 357 1041 l 1
 390 1124 504 1168 705 1168 c 0
 1065 1168 1069 921 1069 550 c 2
EndSplineSet
EndChar

StartChar: three
Encoding: 51 51 305
Width: 1217
VWidth: 0
Flags: W
HStem: -16 138<359.674 836.16> 698 142<500 816.219> 1368 138<356.301 832.95>
VStem: 145 160<265.846 328> 162 154<1174 1253> 878 180<170.344 635.813 899.853 1319.05>
LayerCount: 2
UndoRedoHistory
Layer: 1
Undoes
EndUndoes
Redoes
EndRedoes
EndUndoRedoHistory
Fore
SplineSet
145 328 m 1xf4
 305 351 l 1xf4
 321 166 331 122 591 122 c 0
 884 122 885 164 885 419 c 2
 885 424 l 2
 885 696 798 698 513 698 c 2
 500 698 l 1
 492 840 l 1
 577 840 615 840 653 841 c 0
 873 847 878 932 878 1139 c 2
 878 1172 l 2
 878 1321 843 1368 599 1368 c 0
 397 1368 332 1343 325 1253 c 2
 316 1144 l 1
 162 1174 l 1
 162 1202 l 2xec
 162 1425 226 1506 611 1506 c 0
 921 1506 1058 1394 1058 1134 c 0
 1058 793 881 777 846 769 c 1
 890 761 1067 728 1067 420 c 0
 1067 63 888 -16 567 -16 c 0
 299 -16 144 34 144 265 c 0
 144 283 144 304 145 328 c 1xf4
EndSplineSet
EndChar

StartChar: threequarters
Encoding: 190 190 306
Width: 892
VWidth: 0
Flags: W
HStem: 0 21G<429 520> 152 68<257 429 520 622> 733 71<139 759> 915 64<354.359 550.457> 1185 52<417 539.665> 1416 65<352.32 548.096>
VStem: 282 70<985.342 1063 1331 1410.7> 429 91<0 152 220 544> 557 79<985.49 1175.77 1246.46 1409.38>
LayerCount: 2
UndoRedoHistory
Layer: 1
Undoes
EndUndoes
Redoes
EndRedoes
EndUndoRedoHistory
Fore
SplineSet
257 220 m 1
 429 220 l 1
 429 544 l 1
 394 477.333333333 336.666666667 369.333333333 257 220 c 1
759 733 m 1
 139 733 l 1
 139 804 l 1
 759 804 l 1
 759 733 l 1
285 1063 m 1
 352 1063 l 1
 352 1040 l 2
 352 993 357 979 440 979 c 0
 534 979 557 989 557 1047 c 0
 557 1184 538 1185 422 1185 c 2
 417 1185 l 1
 414 1238 l 1
 419 1238 434 1237 441 1237 c 0
 547 1237 556 1264 556 1306 c 0
 556 1395 554 1416 460 1416 c 0
 376 1416 351 1408 352 1377 c 2
 354 1331 l 1
 295 1331 l 1
 295 1331 287 1357 287 1383 c 0
 287 1455 329 1481 465 1481 c 0
 587 1481 636 1437 636 1329 c 0
 636 1222 564 1211 544 1210 c 1
 565 1207 636 1189 636 1068 c 0
 636 947 571 915 459 915 c 0
 341 915 282 929 282 1014 c 0
 282 1022 283 1038 285 1063 c 1
520 152 m 1
 520 0 l 1
 429 0 l 1
 429 152 l 1
 215 152 l 1
 177 220 l 1
 408 616 l 1
 520 616 l 1
 520 220 l 1
 622 220 l 1
 622 152 l 1
 520 152 l 1
EndSplineSet
EndChar

StartChar: tilde
Encoding: 732 732 307
Width: 1015
VWidth: 0
Flags: W
HStem: 912 152<492.395 753.141> 996 136<234.604 475.993>
VStem: 165 677
LayerCount: 2
UndoRedoHistory
Layer: 1
Undoes
EndUndoes
Redoes
EndRedoes
EndUndoRedoHistory
Fore
SplineSet
503.5 1097 m 0,0,-1
842 1097 m 1,1,-1
 803 956 718 912 615 912 c 0,4,-1
 513 912 427 996 340 996 c 0,7,-1
 292 996 244 979 194 933 c 1,10,-1
 165 976 l 1,11,-1
 203 1096 281 1132 374 1132 c 0,14,-1
 498 1132 549 1064 623 1064 c 0,17,-1
 674 1064 731 1085 808 1147 c 1,20,-1
 842 1097 l 1,1,-1
EndSplineSet
EndChar

StartChar: trademark
Encoding: 8482 8482 308
Width: 1173
VWidth: 0
Flags: W
HStem: 1448 73<118 240 342 464>
VStem: 240 102<990 1448> 550 86<990 1346> 932 96<990 1346>
LayerCount: 2
UndoRedoHistory
Layer: 1
Undoes
EndUndoes
Redoes
EndRedoes
EndUndoRedoHistory
Fore
SplineSet
342 1448 m 1
 342 990 l 1
 240 990 l 1
 240 1448 l 1
 118 1448 l 1
 118 1521 l 1
 464 1521 l 1
 464 1448 l 1
 342 1448 l 1
636 1346 m 1
 636 990 l 1
 550 990 l 1
 550 1521 l 1
 669 1521 l 1
 793 1132 l 1
 909 1521 l 1
 1028 1521 l 1
 1028 990 l 1
 932 990 l 1
 932 1346 l 1
 825 990 l 1
 741 990 l 1
 636 1346 l 1
EndSplineSet
EndChar

StartChar: two
Encoding: 50 50 309
Width: 1176
VWidth: 0
Flags: W
HStem: 9 137<326 1008> 1125 21G<223.429 317> 1368 139<381.802 785.621>
VStem: 145 181<146 324.172> 840 186<869.403 1315.69>
LayerCount: 2
UndoRedoHistory
Layer: 1
Undoes
EndUndoes
Redoes
EndRedoes
EndUndoRedoHistory
Fore
SplineSet
326 146 m 1
 1008 146 l 1
 1008 9 l 1
 145 9 l 1
 146 315 193 427 365 546 c 0
 695 774 840 763 840 1098 c 0
 840 1287 834 1368 599 1368 c 0
 394 1368 326 1339 308 1125 c 1
 160 1160 l 1
 159 1169 159 1178 159 1187 c 0
 159 1423 314 1507 584 1507 c 0
 895 1507 1026 1439 1026 1098 c 0
 1026 818 930 709 726 594 c 0
 485 459 331 398 326 146 c 1
EndSplineSet
EndChar

StartChar: u
Encoding: 117 117 310
Width: 1176
VWidth: 0
Flags: W
HStem: -15 137<383.725 717.566> 1077 20G<150 347 821 1020>
VStem: 150 197<155.752 1097> 821 199<166.556 1097> 838 182<-1 111.299>
LayerCount: 2
UndoRedoHistory
Layer: 1
Undoes
EndUndoes
Redoes
EndRedoes
EndUndoRedoHistory
Fore
SplineSet
821 1097 m 1xf0
 1020 1097 l 1xf0
 1020 -1 l 1
 838 -1 l 1xe8
 820 140 l 1
 783 29 651 -15 493 -15 c 0
 209 -15 150 113 150 454 c 2
 150 1097 l 1
 347 1097 l 1
 347 460 l 2
 347 418 346 381 346 348 c 0
 346 159 362 122 581 122 c 0
 801 122 822 196 822 303 c 0
 822 328 821 355 821 383 c 2
 821 1097 l 1xf0
584 1097 m 0
1053 10 m 0
EndSplineSet
EndChar

StartChar: underscore
Encoding: 95 95 318
Width: 1078
VWidth: 0
Flags: W
HStem: -127 127<119 956>
LayerCount: 2
UndoRedoHistory
Layer: 1
Undoes
EndUndoes
Redoes
EndRedoes
EndUndoRedoHistory
Fore
SplineSet
956 -127 m 1
 119 -127 l 1
 119 0 l 1
 956 0 l 1
 956 -127 l 1
EndSplineSet
EndChar

StartChar: uni00AD
Encoding: 173 173 321
Width: 1050
VWidth: 0
Flags: W
HStem: 549 179<134 920>
LayerCount: 2
UndoRedoHistory
Layer: 1
Undoes
EndUndoes
Redoes
EndRedoes
EndUndoRedoHistory
Fore
SplineSet
920 728 m 1
 920 549 l 1
 134 549 l 1
 134 728 l 1
 920 728 l 1
EndSplineSet
EndChar

StartChar: uni00B2
Encoding: 178 178 322
Width: 1005
VWidth: 0
Flags: W
HStem: 248 111<293 842> 1342 112<329.81 671.844>
VStem: 148 145<359 520.625 1175 1195.67> 707 150<927.141 1308.1>
LayerCount: 2
UndoRedoHistory
Layer: 1
Undoes
EndUndoes
Redoes
EndRedoes
EndUndoRedoHistory
Fore
SplineSet
293 359 m 1
 842 359 l 1
 842 248 l 1
 148 248 l 1
 148 495 186 584 325 680 c 0
 590 863 707 855 707 1125 c 0
 707 1277 702 1342 513 1342 c 0
 348 1342 293 1319 279 1147 c 1
 160 1175 l 1
 159 1182 159 1189 159 1196 c 0
 159 1386 284 1454 501 1454 c 0
 751 1454 857 1399 857 1125 c 0
 857 899 779 811 615 719 c 0
 421 610 297 561 293 359 c 1
EndSplineSet
EndChar

StartChar: uni00B3
Encoding: 179 179 323
Width: 1020
VWidth: 0
Flags: W
HStem: 247 109<307.949 700.391> 807 111<427 685.167> 1332 108<305.62 695.581>
VStem: 162 121<386.655 517 1180 1221.56> 729 142<384.602 764.374 958.74 1298.88>
LayerCount: 2
UndoRedoHistory
Layer: 1
Undoes
EndUndoes
Redoes
EndRedoes
EndUndoRedoHistory
Fore
SplineSet
149 517 m 1
 274 535 l 1
 285 390 296 356 498 356 c 0
 729 356 729 388 729 592 c 0
 729 806 659 807 433 807 c 2
 427 807 l 1
 421 918 l 1
 487 918 517 918 547 919 c 0
 719 924 723 989 723 1150 c 2
 723 1178 l 2
 723 1295 696 1332 504 1332 c 0
 346 1332 295 1312 290 1242 c 2
 283 1156 l 1
 162 1180 l 1
 162 1202 l 2
 162 1376 212 1440 514 1440 c 0
 757 1440 864 1352 864 1148 c 0
 864 881 725 869 698 863 c 1
 732 856 871 830 871 589 c 0
 871 309 731 247 479 247 c 0
 269 247 148 287 148 468 c 0
 148 482 148 498 149 517 c 1
EndSplineSet
EndChar

StartChar: uni00B9
Encoding: 185 185 325
Width: 585
VWidth: 0
Flags: W
HStem: 1235 74<129 223.014>
VStem: 277 150<240 1235>
LayerCount: 2
UndoRedoHistory
Layer: 1
Undoes
EndUndoes
Redoes
EndRedoes
EndUndoRedoHistory
Fore
SplineSet
303 1425 m 1
 427 1425 l 1
 427 240 l 1
 277 240 l 1
 277 1235 l 1
 129 1235 l 1
 129 1309 l 1
 203.666666667 1323.33333333 261.666666667 1362 303 1425 c 1
EndSplineSet
EndChar

StartChar: uni0237
Encoding: 567 567 366
Width: 616
VWidth: 0
Flags: W
HStem: -302 130<99 248.865> 1077 20G<263 460>
VStem: 263 197<-154.107 1097>
LayerCount: 2
UndoRedoHistory
Layer: 1
Undoes
EndUndoes
Redoes
EndRedoes
EndUndoRedoHistory
Fore
SplineSet
258 1097 m 0,0,-1
263 -64 m 2,1,-1
 263 1097 l 1,2,-1
 460 1097 l 1,3,-1
 460 61 l 2,4,-1
 460 -200 403 -302 205 -302 c 0,7,-1
 174 -302 138 -299 99 -294 c 1,10,-1
 94 -172 l 1,11,-1
 175 -168 263 -188 263 -64 c 2,1,-1
EndSplineSet
EndChar

StartChar: uni0307
Encoding: 775 775 367
Width: 465
VWidth: 0
Flags: W
HStem: 1207 228<136 332>
VStem: 135 198<1207 1435>
LayerCount: 2
UndoRedoHistory
Layer: 1
Undoes
EndUndoes
Redoes
EndRedoes
EndUndoRedoHistory
Fore
SplineSet
227 1097 m 0,0,-1
333 1207 m 1,1,-1
 135 1207 l 1,2,-1
 135 1283 136 1359 136 1435 c 1,5,-1
 332 1435 l 1,6,-1
 332 1359 333 1283 333 1207 c 1,1,-1
EndSplineSet
EndChar

StartChar: uni030F
Encoding: 783 783 368
Width: 1127
VWidth: 0
Flags: W
HStem: 1436 204<115.233 278.784 544.233 707.784>
LayerCount: 2
UndoRedoHistory
Layer: 1
Undoes
EndUndoes
Redoes
EndRedoes
EndUndoRedoHistory
Fore
SplineSet
547 1097 m 0,0,-1
284 1605 m 0,1,-1
 322 1573 580 1308 580 1308 c 1,4,-1
 563 1287 l 2,5,-1
 563 1288 193 1425 168 1436 c 0,8,-1
 119 1457 97 1501 97 1540 c 0,11,-1
 97 1591 134 1640 200 1640 c 0,14,-1
 232 1640 260 1624 284 1605 c 0,1,-1
713 1605 m 0,17,-1
 751 1573 1009 1308 1009 1308 c 1,20,-1
 992 1287 l 2,21,-1
 992 1288 622 1425 597 1436 c 0,24,-1
 548 1457 526 1501 526 1540 c 0,27,-1
 526 1591 563 1640 629 1640 c 0,30,-1
 661 1640 689 1624 713 1605 c 0,17,-1
EndSplineSet
EndChar

StartChar: uni0311
Encoding: 785 785 369
Width: 843
VWidth: 0
Flags: W
HStem: 1622 126<293.407 550.172>
VStem: 126 142<1448 1591.91> 576 141<1448 1595.66>
LayerCount: 2
UndoRedoHistory
Layer: 1
Undoes
EndUndoes
Redoes
EndRedoes
EndUndoRedoHistory
Fore
SplineSet
717 1448 m 1
 575 1448 l 1
 576 1451 576 1455 576 1460 c 0
 576 1581 545 1622 422 1622 c 0
 297 1622 268 1580 268 1448 c 1
 126 1448 l 1
 126 1678 225 1748 459 1748 c 0
 605 1748 717 1670 717 1448 c 1
EndSplineSet
EndChar

StartChar: uni0326
Encoding: 806 806 370
Width: 502
VWidth: 0
Flags: W
HStem: -691 60<100 172.91>
LayerCount: 2
UndoRedoHistory
Layer: 1
Undoes
EndUndoes
Redoes
EndRedoes
EndUndoRedoHistory
Fore
SplineSet
339.5 0 m 0,0,-1
241 -140 m 0,1,-1
 346 -140 413 -225 413 -356 c 0,4,-1
 413 -528 280 -691 100 -691 c 1,7,-1
 100 -631 l 1,8,-1
 177 -628 228 -558 228 -466 c 1,11,-1
 133 -461 86 -405 86 -296 c 0,14,-1
 86 -239 144 -140 241 -140 c 0,1,-1
EndSplineSet
EndChar

StartChar: uniF6C3
Encoding: 63171 63171 372
Width: 679
VWidth: 0
Flags: W
HStem: -691 60<190 262.91>
LayerCount: 2
UndoRedoHistory
Layer: 1
Undoes
EndUndoes
Redoes
EndRedoes
EndUndoRedoHistory
Fore
SplineSet
331 -140 m 0
 436 -140 503 -225 503 -356 c 0
 503 -528 370 -691 190 -691 c 1
 190 -631 l 1
 267 -628 318 -558 318 -466 c 1
 223 -461 176 -405 176 -296 c 0
 176 -239 234 -140 331 -140 c 0
EndSplineSet
EndChar

StartChar: uniFB01
Encoding: 64257 64257 373
Width: 1198
VWidth: 0
Flags: W
HStem: 0 21G<267 464 840 1037> 984 113<138 267 464 840> 1362 143<500.394 668> 1365 157<468.164 665.052>
VStem: 267 197<0 984 1097 1363.36> 840 197<0 984 1348 1521>
LayerCount: 2
UndoRedoHistory
Layer: 1
Undoes
EndUndoes
Redoes
EndRedoes
EndUndoRedoHistory
Fore
SplineSet
840 1348 m 1xcc
 840 1521 l 1
 1037 1521 l 1
 1037 1348 l 1
 840 1348 l 1xcc
464 1097 m 1
 1037 1097 l 1
 1037 0 l 1
 840 0 l 1
 840 984 l 1
 464 984 l 1
 464 0 l 1
 267 0 l 1
 267 984 l 1
 138 984 l 1
 138 1097 l 1
 267 1097 l 1
 267 1416 276 1522 498 1522 c 0xdc
 549 1522 605 1517 668 1505 c 1
 668 1362 l 1xec
 632 1364 597 1365 564 1365 c 2
 541 1365 l 2xdc
 472 1365 463 1359 463 1235 c 0
 463 1200 464 1155 464 1097 c 1
EndSplineSet
EndChar

StartChar: uniFB02
Encoding: 64258 64258 374
Width: 1247
VWidth: 0
Flags: W
HStem: 0 21G<267 464 889 1086> 984 113<138 267 464 662> 1394 128<489.612 884.106>
VStem: 267 197<0 984 1097 1371.66> 889 197<0 1376.2>
LayerCount: 2
UndoRedoHistory
Layer: 1
Undoes
EndUndoes
Redoes
EndRedoes
EndUndoRedoHistory
Fore
SplineSet
1086 1482 m 1
 1086 0 l 1
 889 0 l 1
 889 1372 l 1
 825 1379 661 1394 577 1394 c 0
 505 1394 463 1360 463 1235 c 0
 463 1200 464 1155 464 1097 c 1
 662 1097 l 1
 662 984 l 1
 464 984 l 1
 464 0 l 1
 267 0 l 1
 267 984 l 1
 138 984 l 1
 138 1097 l 1
 267 1097 l 1
 267 1416 276 1522 568 1522 c 0
 724 1522 883 1506 1086 1482 c 1
EndSplineSet
EndChar

StartChar: v
Encoding: 118 118 378
Width: 1037
VWidth: 0
Flags: W
HStem: 0 21G<400.528 627.618> 1077 20G<52 243.004 775.255 984>
LayerCount: 2
UndoRedoHistory
Layer: 1
Undoes
EndUndoes
Redoes
EndRedoes
EndUndoRedoHistory
Fore
SplineSet
515 171 m 1
 781 1097 l 1
 984 1097 l 1
 621 0 l 1
 407 0 l 1
 52 1097 l 1
 237 1097 l 1
 515 171 l 1
EndSplineSet
EndChar

StartChar: w
Encoding: 119 119 379
Width: 1588
VWidth: 0
Flags: W
HStem: 0 21G<367.749 580.308 1035.46 1228.21> 1077 20G<85 269.887 705.796 893.269 1321.45 1509>
LayerCount: 2
UndoRedoHistory
Layer: 1
Undoes
EndUndoes
Redoes
EndRedoes
EndUndoRedoHistory
Fore
SplineSet
1123 205 m 1
 1326 1097 l 1
 1509 1097 l 1
 1223 0 l 1
 1041 0 l 1
 803 859 l 1
 575 0 l 1
 373 0 l 1
 85 1097 l 1
 265 1097 l 1
 481 213 l 1
 711 1097 l 1
 888 1097 l 1
 1123 205 l 1
729 1097 m 0
EndSplineSet
EndChar

StartChar: x
Encoding: 120 120 381
Width: 1052
VWidth: 0
Flags: W
HStem: 0 21G<76 273.465 762.605 981> 1077 20G<84 301.687 776.286 972>
LayerCount: 2
UndoRedoHistory
Layer: 1
Undoes
EndUndoes
Redoes
EndRedoes
EndUndoRedoHistory
Fore
SplineSet
972 1097 m 1
 639 563 l 1
 981 0 l 1
 774 0 l 1
 529 430 l 1
 261 0 l 1
 76 0 l 1
 422 565 l 1
 84 1097 l 1
 290 1097 l 1
 529 688 l 1
 789 1097 l 1
 972 1097 l 1
EndSplineSet
EndChar

StartChar: y
Encoding: 121 121 382
Width: 1032
VWidth: 0
Flags: W
HStem: -346 156<166.183 426.868> 1077 20G<40 242.253 788.922 992>
LayerCount: 2
UndoRedoHistory
Layer: 1
Undoes
EndUndoes
Redoes
EndRedoes
EndUndoRedoHistory
Fore
SplineSet
640 587 m 1
 795 1097 l 1
 992 1097 l 1
 646 53 l 2
 572 -171 606 -346 386 -346 c 0
 314 -346 218 -335 146 -318 c 1
 170 -167 l 1
 225 -174 306 -190 350 -190 c 0
 428 -190 450 -148 451 21 c 1
 40 1097 l 1
 235 1097 l 1
 437 540 l 1
 540 243 l 1
 640 587 l 1
426 1097 m 0
EndSplineSet
EndChar

StartChar: yen
Encoding: 165 165 386
Width: 1319
VWidth: 0
Flags: W
HStem: 0 21G<553 755> 261 86<288 553 755 1032> 518 113<241 502 807 1079> 1470 20G<115 344.519 983.324 1206>
VStem: 553 202<0 261 347 518>
LayerCount: 2
UndoRedoHistory
Layer: 1
Undoes
EndUndoes
Redoes
EndRedoes
EndUndoRedoHistory
Fore
SplineSet
1206 1490 m 1
 807 631 l 1
 1079 631 l 1
 1079 518 l 1
 755 518 l 1
 755 347 l 1
 1032 347 l 1
 1032 261 l 1
 755 261 l 1
 755 0 l 1
 553 0 l 1
 553 261 l 1
 288 261 l 1
 288 347 l 1
 553 347 l 1
 553 518 l 1
 241 518 l 1
 241 631 l 1
 502 631 l 1
 115 1490 l 1
 336 1490 l 1
 661 727 l 1
 992 1490 l 1
 1206 1490 l 1
EndSplineSet
EndChar

StartChar: z
Encoding: 122 122 387
Width: 936
VWidth: 0
Flags: W
HStem: 0 135<326 834> 960 137<173 640>
LayerCount: 2
UndoRedoHistory
Layer: 1
Undoes
EndUndoes
Redoes
EndRedoes
EndUndoRedoHistory
Fore
SplineSet
326 135 m 1
 843 135 l 1
 834 0 l 1
 144 0 l 1
 127 141 l 1
 640 960 l 1
 173 960 l 1
 164 1097 l 1
 828 1097 l 1
 837 960 l 1
 326 135 l 1
418 1097 m 0
EndSplineSet
EndChar

StartChar: zero
Encoding: 48 48 391
Width: 1304
VWidth: 0
Flags: W
HStem: -16 154<418.412 885.402> 1357 149<429.028 878.212>
VStem: 150 185<253.329 1246.38> 969 185<253.329 1251.95>
LayerCount: 2
UndoRedoHistory
Layer: 1
Undoes
EndUndoes
Redoes
EndRedoes
EndUndoRedoHistory
Fore
SplineSet
652 1357 m 0
 454 1357 354 1305 347 1179 c 0
 338 1037 335 890 335 740 c 0
 335 590 337 442 346 301 c 0
 353 187 445 138 652 138 c 0
 859 138 951 187 958 301 c 0
 967 442 969 590 969 740 c 0
 969 890 965 1037 957 1179 c 0
 949 1305 849 1357 652 1357 c 0
652 -16 m 0
 157 -16 150 225 150 776 c 0
 150 1289 192 1506 652 1506 c 0
 1093 1506 1154 1304 1154 829 c 2
 1154 776 l 2
 1154 225 1146 -16 652 -16 c 0
EndSplineSet
EndChar
